<svg xmlns="http://www.w3.org/2000/svg" xmlns:xlink="http://www.w3.org/1999/xlink" version="1.1" class="marks" width="517" height="427" viewBox="0 0 517 427"><rect width="517" height="427" fill="white"/><g fill="none" stroke-miterlimit="10" transform="translate(7,22)"><g class="mark-group role-frame root" role="graphics-object" aria-roledescription="group mark container"><g transform="translate(0,0)"><path class="background" aria-hidden="true" d="M0,0h300v400h-300Z"/><g><g class="mark-arc role-mark layer_0_marks" role="graphics-object" aria-roledescription="arc mark container"><path aria-label="Count of Records: 40; Outcome Type: Unassisted Death in Custody" role="graphics-symbol" aria-roledescription="arc mark" transform="translate(150,200)" d="M0,-150A150,150,0,0,0,-128.564,77.275L0,0Z" fill="#2ca02c"/><path aria-label="Count of Records: 50; Outcome Type: Euthanasia" role="graphics-symbol" aria-roledescription="arc mark" transform="translate(150,200)" d="M72.124,131.522A150,150,0,0,0,0,-150L0,0Z" fill="#1f77b4"/><path aria-label="Count of Records: 16; Outcome Type: Return to Owner" role="graphics-symbol" aria-roledescription="arc mark" transform="translate(150,200)" d="M-119.703,90.395A150,150,0,0,0,-11.868,149.53L0,0Z" fill="#ff7f0e"/><path aria-label="Count of Records: 11; Outcome Type: Field/Wildlife Release" role="graphics-symbol" aria-roledescription="arc mark" transform="translate(150,200)" d="M-11.868,149.53A150,150,0,0,0,72.124,131.522L0,0Z" fill="#aec7e8"/><path aria-label="Count of Records: 2; Outcome Type: Transfer Out" role="graphics-symbol" aria-roledescription="arc mark" transform="translate(150,200)" d="M-128.564,77.275A150,150,0,0,0,-119.703,90.395L0,0Z" fill="#ffbb78"/></g><g class="mark-text role-mark layer_1_marks" role="graphics-object" aria-roledescription="text mark container"><text aria-label="Count of Records: 40; Outcome Type: Unassisted Death in Custody" role="graphics-symbol" aria-roledescription="text mark" text-anchor="middle" transform="translate(6.3853522449238085,123.76064408068348)" font-family="sans-serif" font-size="15px" fill="#2ca02c">40</text><text aria-label="Count of Records: 50; Outcome Type: Euthanasia" role="graphics-symbol" aria-roledescription="text mark" text-anchor="middle" transform="translate(309.8378651205251,164.05055710131307)" font-family="sans-serif" font-size="15px" fill="#1f77b4">50</text><text aria-label="Count of Records: 16; Outcome Type: Return to Owner" role="graphics-symbol" aria-roledescription="text mark" text-anchor="middle" transform="translate(70.6633753842307,349.67446213681427)" font-family="sans-serif" font-size="15px" fill="#ff7f0e">16</text><text aria-label="Count of Records: 11; Outcome Type: Field/Wildlife Release" role="graphics-symbol" aria-roledescription="text mark" text-anchor="middle" transform="translate(184.5894291053102,366.3337267720817)" font-family="sans-serif" font-size="15px" fill="#aec7e8">11</text><text aria-label="Count of Records: 2; Outcome Type: Transfer Out" role="graphics-symbol" aria-roledescription="text mark" text-anchor="middle" transform="translate(13.262953811924916,297.34706383941085)" font-family="sans-serif" font-size="15px" fill="#ffbb78">2</text></g><g class="mark-group role-legend" role="graphics-symbol" aria-roledescription="legend" aria-label="Symbol legend titled 'Outcome Type' for fill color with 5 values: Euthanasia, Field/Wildlife Release, Return to Owner, Transfer Out, Unassisted Death in Custody"><g transform="translate(360,0)"><path class="background" aria-hidden="true" d="M0,0h145v79h-145Z" pointer-events="none"/><g><g class="mark-group role-legend-entry"><g transform="translate(0,16)"><path class="background" aria-hidden="true" d="M0,0h0v0h0Z" pointer-events="none"/><g><g class="mark-group role-scope" role="graphics-object" aria-roledescription="group mark container"><g transform="translate(0,0)"><path class="background" aria-hidden="true" d="M0,0h144.955078125v11h-144.955078125Z" pointer-events="none" opacity="1"/><g><g class="mark-symbol role-legend-symbol" pointer-events="none"><path transform="translate(6,6)" d="M5,0A5,5,0,1,1,-5,0A5,5,0,1,1,5,0" fill="#1f77b4" stroke-width="1.5" opacity="1"/></g><g class="mark-text role-legend-label" pointer-events="none"><text text-anchor="start" transform="translate(16,9)" font-family="sans-serif" font-size="10px" fill="#000" opacity="1">Euthanasia</text></g></g><path class="foreground" aria-hidden="true" d="" pointer-events="none" display="none"/></g><g transform="translate(0,13)"><path class="background" aria-hidden="true" d="M0,0h144.955078125v11h-144.955078125Z" pointer-events="none" opacity="1"/><g><g class="mark-symbol role-legend-symbol" pointer-events="none"><path transform="translate(6,6)" d="M5,0A5,5,0,1,1,-5,0A5,5,0,1,1,5,0" fill="#aec7e8" stroke-width="1.5" opacity="1"/></g><g class="mark-text role-legend-label" pointer-events="none"><text text-anchor="start" transform="translate(16,9)" font-family="sans-serif" font-size="10px" fill="#000" opacity="1">Field/Wildlife Release</text></g></g><path class="foreground" aria-hidden="true" d="" pointer-events="none" display="none"/></g><g transform="translate(0,26)"><path class="background" aria-hidden="true" d="M0,0h144.955078125v11h-144.955078125Z" pointer-events="none" opacity="1"/><g><g class="mark-symbol role-legend-symbol" pointer-events="none"><path transform="translate(6,6)" d="M5,0A5,5,0,1,1,-5,0A5,5,0,1,1,5,0" fill="#ff7f0e" stroke-width="1.5" opacity="1"/></g><g class="mark-text role-legend-label" pointer-events="none"><text text-anchor="start" transform="translate(16,9)" font-family="sans-serif" font-size="10px" fill="#000" opacity="1">Return to Owner</text></g></g><path class="foreground" aria-hidden="true" d="" pointer-events="none" display="none"/></g><g transform="translate(0,39)"><path class="background" aria-hidden="true" d="M0,0h144.955078125v11h-144.955078125Z" pointer-events="none" opacity="1"/><g><g class="mark-symbol role-legend-symbol" pointer-events="none"><path transform="translate(6,6)" d="M5,0A5,5,0,1,1,-5,0A5,5,0,1,1,5,0" fill="#ffbb78" stroke-width="1.5" opacity="1"/></g><g class="mark-text role-legend-label" pointer-events="none"><text text-anchor="start" transform="translate(16,9)" font-family="sans-serif" font-size="10px" fill="#000" opacity="1">Transfer Out</text></g></g><path class="foreground" aria-hidden="true" d="" pointer-events="none" display="none"/></g><g transform="translate(0,52)"><path class="background" aria-hidden="true" d="M0,0h144.955078125v11h-144.955078125Z" pointer-events="none" opacity="1"/><g><g class="mark-symbol role-legend-symbol" pointer-events="none"><path transform="translate(6,6)" d="M5,0A5,5,0,1,1,-5,0A5,5,0,1,1,5,0" fill="#2ca02c" stroke-width="1.5" opacity="1"/></g><g class="mark-text role-legend-label" pointer-events="none"><text text-anchor="start" transform="translate(16,9)" font-family="sans-serif" font-size="10px" fill="#000" opacity="1">Unassisted Death in Custody</text></g></g><path class="foreground" aria-hidden="true" d="" pointer-events="none" display="none"/></g></g></g><path class="foreground" aria-hidden="true" d="" pointer-events="none" display="none"/></g></g><g class="mark-text role-legend-title" pointer-events="none"><text text-anchor="start" transform="translate(0,9)" font-family="sans-serif" font-size="11px" font-weight="bold" fill="#000" opacity="1">Outcome Type</text></g></g><path class="foreground" aria-hidden="true" d="" pointer-events="none" display="none"/></g></g><g class="mark-group role-title"><g transform="translate(150,-17)"><path class="background" aria-hidden="true" d="M0,0h0v0h0Z" pointer-events="none"/><g><g class="mark-text role-title-text" role="graphics-symbol" aria-roledescription="title" aria-label="Title text 'Cats by Outcome Type'" pointer-events="none"><text text-anchor="middle" transform="translate(0,10)" font-family="sans-serif" font-size="13px" font-weight="bold" fill="#000" opacity="1">Cats by Outcome Type</text></g></g><path class="foreground" aria-hidden="true" d="" pointer-events="none" display="none"/></g></g></g><path class="foreground" aria-hidden="true" d="" display="none"/></g></g></g></svg>