<svg xmlns="http://www.w3.org/2000/svg" xmlns:xlink="http://www.w3.org/1999/xlink" version="1.1" class="marks" width="1795" height="351" viewBox="0 0 1795 351"><rect width="1795" height="351" fill="white"/><g fill="none" stroke-miterlimit="10" transform="translate(5,46)"><g class="mark-group role-frame root" role="graphics-object" aria-roledescription="group mark container"><g transform="translate(0,0)"><path class="background" aria-hidden="true" d="M0,0h0v0h0Z"/><g><g class="mark-group role-column-title facet-title" role="graphics-object" aria-roledescription="group mark container"><g transform="translate(790,-20)"><path class="background" aria-hidden="true" d="M0,0h0v0h0Z"/><g><g class="mark-group role-title"><g transform="translate(0,-21)"><path class="background" aria-hidden="true" d="M0,0h0v0h0Z" pointer-events="none"/><g><g class="mark-text role-title-text" role="graphics-symbol" aria-roledescription="title" aria-label="Title text 'Intake Type'" pointer-events="none"><text text-anchor="middle" transform="translate(0,9)" font-family="sans-serif" font-size="11px" font-weight="bold" fill="#000" opacity="1">Intake Type</text></g></g><path class="foreground" aria-hidden="true" d="" pointer-events="none" display="none"/></g></g></g><path class="foreground" aria-hidden="true" d="" display="none"/></g></g><g class="mark-group role-scope cell" role="graphics-object" aria-roledescription="group mark container"><g transform="translate(0,0)"><path class="background" aria-hidden="true" d="M0,0h300v300h-300Z"/><g><g class="mark-arc role-mark child_marks" role="graphics-object" aria-roledescription="arc mark container"><path aria-label="Count of Records: 109; Outcome Type: Adoption" role="graphics-symbol" aria-roledescription="arc mark" transform="translate(150,150)" d="M-8.563,-149.755A150,150,0,1,0,0,-150L0,0Z" fill="#1f77b4"/><path aria-label="Count of Records: 1; Outcome Type: Euthanasia" role="graphics-symbol" aria-roledescription="arc mark" transform="translate(150,150)" d="M0,-150A150,150,0,0,0,-8.563,-149.755L0,0Z" fill="#aec7e8"/></g><g class="mark-group role-title"><g transform="translate(150,-20)"><path class="background" aria-hidden="true" d="M0,0h0v0h0Z" pointer-events="none"/><g><g class="mark-text role-title-text" role="graphics-symbol" aria-roledescription="title" aria-label="Title text 'Adoption Return'" pointer-events="none"><text text-anchor="middle" transform="translate(0,8)" font-family="sans-serif" font-size="10px" fill="#000" opacity="1">Adoption Return</text></g></g><path class="foreground" aria-hidden="true" d="" pointer-events="none" display="none"/></g></g></g><path class="foreground" aria-hidden="true" d="" display="none"/></g><g transform="translate(320,0)"><path class="background" aria-hidden="true" d="M0,0h300v300h-300Z"/><g><g class="mark-arc role-mark child_marks" role="graphics-object" aria-roledescription="arc mark container"><path aria-label="Count of Records: 10; Outcome Type: Unassisted Death in Custody" role="graphics-symbol" aria-roledescription="arc mark" transform="translate(150,150)" d="M0,-150A150,150,0,0,0,-61.395,-136.86L0,0Z" fill="#98df8a"/><path aria-label="Count of Records: 138; Outcome Type: Adoption" role="graphics-symbol" aria-roledescription="arc mark" transform="translate(150,150)" d="M-67.11,-134.15A150,150,0,1,0,0,-150L0,0Z" fill="#1f77b4"/><path aria-label="Count of Records: 1; Outcome Type: Euthanasia" role="graphics-symbol" aria-roledescription="arc mark" transform="translate(150,150)" d="M-61.395,-136.86A150,150,0,0,0,-67.11,-134.15L0,0Z" fill="#aec7e8"/></g><g class="mark-group role-title"><g transform="translate(150,-20)"><path class="background" aria-hidden="true" d="M0,0h0v0h0Z" pointer-events="none"/><g><g class="mark-text role-title-text" role="graphics-symbol" aria-roledescription="title" aria-label="Title text 'Born in Care'" pointer-events="none"><text text-anchor="middle" transform="translate(0,8)" font-family="sans-serif" font-size="10px" fill="#000" opacity="1">Born in Care</text></g></g><path class="foreground" aria-hidden="true" d="" pointer-events="none" display="none"/></g></g></g><path class="foreground" aria-hidden="true" d="" display="none"/></g><g transform="translate(640,0)"><path class="background" aria-hidden="true" d="M0,0h300v300h-300Z"/><g><g class="mark-arc role-mark child_marks" role="graphics-object" aria-roledescription="arc mark container"><path aria-label="Count of Records: 624; Outcome Type: Adoption" role="graphics-symbol" aria-roledescription="arc mark" transform="translate(150,150)" d="M-31.852,-146.579A150,150,0,1,0,0,-150L0,0Z" fill="#1f77b4"/><path aria-label="Count of Records: 11; Outcome Type: Euthanasia" role="graphics-symbol" aria-roledescription="arc mark" transform="translate(150,150)" d="M-16.018,-149.142A150,150,0,0,0,-31.852,-146.579L0,0Z" fill="#aec7e8"/><path aria-label="Count of Records: 7; Outcome Type: Unassisted Death in Custody" role="graphics-symbol" aria-roledescription="arc mark" transform="translate(150,150)" d="M0,-150A150,150,0,0,0,-10.205,-149.652L0,0Z" fill="#98df8a"/><path aria-label="Count of Records: 3; Outcome Type: Return to Owner" role="graphics-symbol" aria-roledescription="arc mark" transform="translate(150,150)" d="M-10.205,-149.652A150,150,0,0,0,-14.566,-149.291L0,0Z" fill="#ffbb78"/><path aria-label="Count of Records: 1; Outcome Type: Field/Wildlife Release" role="graphics-symbol" aria-roledescription="arc mark" transform="translate(150,150)" d="M-14.566,-149.291A150,150,0,0,0,-16.018,-149.142L0,0Z" fill="#ff7f0e"/></g><g class="mark-group role-title"><g transform="translate(150,-20)"><path class="background" aria-hidden="true" d="M0,0h0v0h0Z" pointer-events="none"/><g><g class="mark-text role-title-text" role="graphics-symbol" aria-roledescription="title" aria-label="Title text 'Owner Surrender'" pointer-events="none"><text text-anchor="middle" transform="translate(0,8)" font-family="sans-serif" font-size="10px" fill="#000" opacity="1">Owner Surrender</text></g></g><path class="foreground" aria-hidden="true" d="" pointer-events="none" display="none"/></g></g></g><path class="foreground" aria-hidden="true" d="" display="none"/></g><g transform="translate(960,0)"><path class="background" aria-hidden="true" d="M0,0h300v300h-300Z"/><g><g class="mark-arc role-mark child_marks" role="graphics-object" aria-roledescription="arc mark container"><path aria-label="Count of Records: 1910; Outcome Type: Adoption" role="graphics-symbol" aria-roledescription="arc mark" transform="translate(150,150)" d="M-34.387,-146.005A150,150,0,1,0,0,-150L0,0Z" fill="#1f77b4"/><path aria-label="Count of Records: 27; Outcome Type: Euthanasia" role="graphics-symbol" aria-roledescription="arc mark" transform="translate(150,150)" d="M-21.785,-148.41A150,150,0,0,0,-34.387,-146.005L0,0Z" fill="#aec7e8"/><path aria-label="Count of Records: 10; Outcome Type: Field/Wildlife Release" role="graphics-symbol" aria-roledescription="arc mark" transform="translate(150,150)" d="M-17.073,-149.025A150,150,0,0,0,-21.785,-148.41L0,0Z" fill="#ff7f0e"/><path aria-label="Count of Records: 23; Outcome Type: Unassisted Death in Custody" role="graphics-symbol" aria-roledescription="arc mark" transform="translate(150,150)" d="M0,-150A150,150,0,0,0,-10.922,-149.602L0,0Z" fill="#98df8a"/><path aria-label="Count of Records: 11; Outcome Type: Return to Owner" role="graphics-symbol" aria-roledescription="arc mark" transform="translate(150,150)" d="M-11.87,-149.53A150,150,0,0,0,-17.073,-149.025L0,0Z" fill="#ffbb78"/><path aria-label="Count of Records: 2; Outcome Type: Transfer Out" role="graphics-symbol" aria-roledescription="arc mark" transform="translate(150,150)" d="M-10.922,-149.602A150,150,0,0,0,-11.87,-149.53L0,0Z" fill="#2ca02c"/></g><g class="mark-group role-title"><g transform="translate(150,-20)"><path class="background" aria-hidden="true" d="M0,0h0v0h0Z" pointer-events="none"/><g><g class="mark-text role-title-text" role="graphics-symbol" aria-roledescription="title" aria-label="Title text 'Stray In'" pointer-events="none"><text text-anchor="middle" transform="translate(0,8)" font-family="sans-serif" font-size="10px" fill="#000" opacity="1">Stray In</text></g></g><path class="foreground" aria-hidden="true" d="" pointer-events="none" display="none"/></g></g></g><path class="foreground" aria-hidden="true" d="" display="none"/></g><g transform="translate(1280,0)"><path class="background" aria-hidden="true" d="M0,0h300v300h-300Z"/><g><g class="mark-arc role-mark child_marks" role="graphics-object" aria-roledescription="arc mark container"><path aria-label="Count of Records: 435; Outcome Type: Adoption" role="graphics-symbol" aria-roledescription="arc mark" transform="translate(150,150)" d="M-25.182,-147.871A150,150,0,1,0,0,-150L0,0Z" fill="#1f77b4"/><path aria-label="Count of Records: 2; Outcome Type: Return to Owner" role="graphics-symbol" aria-roledescription="arc mark" transform="translate(150,150)" d="M0,-150A150,150,0,0,0,-4.216,-149.941L0,0Z" fill="#ffbb78"/><path aria-label="Count of Records: 10; Outcome Type: Euthanasia" role="graphics-symbol" aria-roledescription="arc mark" transform="translate(150,150)" d="M-4.216,-149.941A150,150,0,0,0,-25.182,-147.871L0,0Z" fill="#aec7e8"/></g><g class="mark-group role-title"><g transform="translate(150,-20)"><path class="background" aria-hidden="true" d="M0,0h0v0h0Z" pointer-events="none"/><g><g class="mark-text role-title-text" role="graphics-symbol" aria-roledescription="title" aria-label="Title text 'Transfer In'" pointer-events="none"><text text-anchor="middle" transform="translate(0,8)" font-family="sans-serif" font-size="10px" fill="#000" opacity="1">Transfer In</text></g></g><path class="foreground" aria-hidden="true" d="" pointer-events="none" display="none"/></g></g></g><path class="foreground" aria-hidden="true" d="" display="none"/></g></g><g class="mark-group role-legend" role="graphics-symbol" aria-roledescription="legend" aria-label="Symbol legend titled 'Outcome Type' for fill color with 6 values: Adoption, Euthanasia, Field/Wildlife Release, Return to Owner, Transfer Out, Unassisted Death in Custody"><g transform="translate(1640,0)"><path class="background" aria-hidden="true" d="M0,0h145v92h-145Z" pointer-events="none"/><g><g class="mark-group role-legend-entry"><g transform="translate(0,16)"><path class="background" aria-hidden="true" d="M0,0h0v0h0Z" pointer-events="none"/><g><g class="mark-group role-scope" role="graphics-object" aria-roledescription="group mark container"><g transform="translate(0,0)"><path class="background" aria-hidden="true" d="M0,0h144.955078125v11h-144.955078125Z" pointer-events="none" opacity="1"/><g><g class="mark-symbol role-legend-symbol" pointer-events="none"><path transform="translate(6,6)" d="M5,0A5,5,0,1,1,-5,0A5,5,0,1,1,5,0" fill="#1f77b4" stroke-width="1.5" opacity="1"/></g><g class="mark-text role-legend-label" pointer-events="none"><text text-anchor="start" transform="translate(16,9)" font-family="sans-serif" font-size="10px" fill="#000" opacity="1">Adoption</text></g></g><path class="foreground" aria-hidden="true" d="" pointer-events="none" display="none"/></g><g transform="translate(0,13)"><path class="background" aria-hidden="true" d="M0,0h144.955078125v11h-144.955078125Z" pointer-events="none" opacity="1"/><g><g class="mark-symbol role-legend-symbol" pointer-events="none"><path transform="translate(6,6)" d="M5,0A5,5,0,1,1,-5,0A5,5,0,1,1,5,0" fill="#aec7e8" stroke-width="1.5" opacity="1"/></g><g class="mark-text role-legend-label" pointer-events="none"><text text-anchor="start" transform="translate(16,9)" font-family="sans-serif" font-size="10px" fill="#000" opacity="1">Euthanasia</text></g></g><path class="foreground" aria-hidden="true" d="" pointer-events="none" display="none"/></g><g transform="translate(0,26)"><path class="background" aria-hidden="true" d="M0,0h144.955078125v11h-144.955078125Z" pointer-events="none" opacity="1"/><g><g class="mark-symbol role-legend-symbol" pointer-events="none"><path transform="translate(6,6)" d="M5,0A5,5,0,1,1,-5,0A5,5,0,1,1,5,0" fill="#ff7f0e" stroke-width="1.5" opacity="1"/></g><g class="mark-text role-legend-label" pointer-events="none"><text text-anchor="start" transform="translate(16,9)" font-family="sans-serif" font-size="10px" fill="#000" opacity="1">Field/Wildlife Release</text></g></g><path class="foreground" aria-hidden="true" d="" pointer-events="none" display="none"/></g><g transform="translate(0,39)"><path class="background" aria-hidden="true" d="M0,0h144.955078125v11h-144.955078125Z" pointer-events="none" opacity="1"/><g><g class="mark-symbol role-legend-symbol" pointer-events="none"><path transform="translate(6,6)" d="M5,0A5,5,0,1,1,-5,0A5,5,0,1,1,5,0" fill="#ffbb78" stroke-width="1.5" opacity="1"/></g><g class="mark-text role-legend-label" pointer-events="none"><text text-anchor="start" transform="translate(16,9)" font-family="sans-serif" font-size="10px" fill="#000" opacity="1">Return to Owner</text></g></g><path class="foreground" aria-hidden="true" d="" pointer-events="none" display="none"/></g><g transform="translate(0,52)"><path class="background" aria-hidden="true" d="M0,0h144.955078125v11h-144.955078125Z" pointer-events="none" opacity="1"/><g><g class="mark-symbol role-legend-symbol" pointer-events="none"><path transform="translate(6,6)" d="M5,0A5,5,0,1,1,-5,0A5,5,0,1,1,5,0" fill="#2ca02c" stroke-width="1.5" opacity="1"/></g><g class="mark-text role-legend-label" pointer-events="none"><text text-anchor="start" transform="translate(16,9)" font-family="sans-serif" font-size="10px" fill="#000" opacity="1">Transfer Out</text></g></g><path class="foreground" aria-hidden="true" d="" pointer-events="none" display="none"/></g><g transform="translate(0,65)"><path class="background" aria-hidden="true" d="M0,0h144.955078125v11h-144.955078125Z" pointer-events="none" opacity="1"/><g><g class="mark-symbol role-legend-symbol" pointer-events="none"><path transform="translate(6,6)" d="M5,0A5,5,0,1,1,-5,0A5,5,0,1,1,5,0" fill="#98df8a" stroke-width="1.5" opacity="1"/></g><g class="mark-text role-legend-label" pointer-events="none"><text text-anchor="start" transform="translate(16,9)" font-family="sans-serif" font-size="10px" fill="#000" opacity="1">Unassisted Death in Custody</text></g></g><path class="foreground" aria-hidden="true" d="" pointer-events="none" display="none"/></g></g></g><path class="foreground" aria-hidden="true" d="" pointer-events="none" display="none"/></g></g><g class="mark-text role-legend-title" pointer-events="none"><text text-anchor="start" transform="translate(0,9)" font-family="sans-serif" font-size="11px" font-weight="bold" fill="#000" opacity="1">Outcome Type</text></g></g><path class="foreground" aria-hidden="true" d="" pointer-events="none" display="none"/></g></g></g><path class="foreground" aria-hidden="true" d="" display="none"/></g></g></g></svg>