<svg xmlns="http://www.w3.org/2000/svg" xmlns:xlink="http://www.w3.org/1999/xlink" version="1.1" class="marks" width="515" height="427" viewBox="0 0 515 427"><rect width="515" height="427" fill="white"/><g fill="none" stroke-miterlimit="10" transform="translate(5,22)"><g class="mark-group role-frame root" role="graphics-object" aria-roledescription="group mark container"><g transform="translate(0,0)"><path class="background" aria-hidden="true" d="M0,0h300v400h-300Z"/><g><g class="mark-arc role-mark layer_0_marks" role="graphics-object" aria-roledescription="arc mark container"><path aria-label="Count of Records: 40; Outcome Type: Unassisted Death in Custody" role="graphics-symbol" aria-roledescription="arc mark" transform="translate(150,200)" d="M0,-150A150,150,0,0,0,-11.293,-149.574L0,0Z" fill="#98df8a"/><path aria-label="Count of Records: 3216; Outcome Type: Adoption" role="graphics-symbol" aria-roledescription="arc mark" transform="translate(150,200)" d="M-33.349,-146.246A150,150,0,1,0,0,-150L0,0Z" fill="#1f77b4"/><path aria-label="Count of Records: 50; Outcome Type: Euthanasia" role="graphics-symbol" aria-roledescription="arc mark" transform="translate(150,200)" d="M-19.445,-148.734A150,150,0,0,0,-33.349,-146.246L0,0Z" fill="#aec7e8"/><path aria-label="Count of Records: 16; Outcome Type: Return to Owner" role="graphics-symbol" aria-roledescription="arc mark" transform="translate(150,200)" d="M-11.857,-149.531A150,150,0,0,0,-16.358,-149.105L0,0Z" fill="#ffbb78"/><path aria-label="Count of Records: 11; Outcome Type: Field/Wildlife Release" role="graphics-symbol" aria-roledescription="arc mark" transform="translate(150,200)" d="M-16.358,-149.105A150,150,0,0,0,-19.445,-148.734L0,0Z" fill="#ff7f0e"/><path aria-label="Count of Records: 2; Outcome Type: Transfer Out" role="graphics-symbol" aria-roledescription="arc mark" transform="translate(150,200)" d="M-11.293,-149.574A150,150,0,0,0,-11.857,-149.531L0,0Z" fill="#2ca02c"/></g><g class="mark-text role-mark layer_1_marks" role="graphics-object" aria-roledescription="text mark container"><text aria-label="Count of Records: 40; Outcome Type: Unassisted Death in Custody" role="graphics-symbol" aria-roledescription="text mark" text-anchor="middle" transform="translate(143.78422627421887,40.1171198790187)" font-family="sans-serif" font-size="15px" fill="#98df8a">40</text><text aria-label="Count of Records: 3216; Outcome Type: Adoption" role="graphics-symbol" aria-roledescription="text mark" text-anchor="middle" transform="translate(168.4575898412789,368.9643783791197)" font-family="sans-serif" font-size="15px" fill="#1f77b4">3216</text><text aria-label="Count of Records: 50; Outcome Type: Euthanasia" role="graphics-symbol" aria-roledescription="text mark" text-anchor="middle" transform="translate(120.93145541066153,42.5807286204693)" font-family="sans-serif" font-size="15px" fill="#aec7e8">50</text><text aria-label="Count of Records: 16; Outcome Type: Return to Owner" role="graphics-symbol" aria-roledescription="text mark" text-anchor="middle" transform="translate(134.47986538526496,40.73154465467053)" font-family="sans-serif" font-size="15px" fill="#ffbb78">16</text><text aria-label="Count of Records: 11; Outcome Type: Field/Wildlife Release" role="graphics-symbol" aria-roledescription="text mark" text-anchor="middle" transform="translate(130.30730150927428,41.179373624218584)" font-family="sans-serif" font-size="15px" fill="#ff7f0e">11</text><text aria-label="Count of Records: 2; Outcome Type: Transfer Out" role="graphics-symbol" aria-roledescription="text mark" text-anchor="middle" transform="translate(137.26731897531553,40.492009817384115)" font-family="sans-serif" font-size="15px" fill="#2ca02c">2</text></g><g class="mark-group role-legend" role="graphics-symbol" aria-roledescription="legend" aria-label="Symbol legend titled 'Outcome Type' for fill color with 6 values: Adoption, Euthanasia, Field/Wildlife Release, Return to Owner, Transfer Out, Unassisted Death in Custody"><g transform="translate(360,0)"><path class="background" aria-hidden="true" d="M0,0h145v92h-145Z" pointer-events="none"/><g><g class="mark-group role-legend-entry"><g transform="translate(0,16)"><path class="background" aria-hidden="true" d="M0,0h0v0h0Z" pointer-events="none"/><g><g class="mark-group role-scope" role="graphics-object" aria-roledescription="group mark container"><g transform="translate(0,0)"><path class="background" aria-hidden="true" d="M0,0h144.955078125v11h-144.955078125Z" pointer-events="none" opacity="1"/><g><g class="mark-symbol role-legend-symbol" pointer-events="none"><path transform="translate(6,6)" d="M5,0A5,5,0,1,1,-5,0A5,5,0,1,1,5,0" fill="#1f77b4" stroke-width="1.5" opacity="1"/></g><g class="mark-text role-legend-label" pointer-events="none"><text text-anchor="start" transform="translate(16,9)" font-family="sans-serif" font-size="10px" fill="#000" opacity="1">Adoption</text></g></g><path class="foreground" aria-hidden="true" d="" pointer-events="none" display="none"/></g><g transform="translate(0,13)"><path class="background" aria-hidden="true" d="M0,0h144.955078125v11h-144.955078125Z" pointer-events="none" opacity="1"/><g><g class="mark-symbol role-legend-symbol" pointer-events="none"><path transform="translate(6,6)" d="M5,0A5,5,0,1,1,-5,0A5,5,0,1,1,5,0" fill="#aec7e8" stroke-width="1.5" opacity="1"/></g><g class="mark-text role-legend-label" pointer-events="none"><text text-anchor="start" transform="translate(16,9)" font-family="sans-serif" font-size="10px" fill="#000" opacity="1">Euthanasia</text></g></g><path class="foreground" aria-hidden="true" d="" pointer-events="none" display="none"/></g><g transform="translate(0,26)"><path class="background" aria-hidden="true" d="M0,0h144.955078125v11h-144.955078125Z" pointer-events="none" opacity="1"/><g><g class="mark-symbol role-legend-symbol" pointer-events="none"><path transform="translate(6,6)" d="M5,0A5,5,0,1,1,-5,0A5,5,0,1,1,5,0" fill="#ff7f0e" stroke-width="1.5" opacity="1"/></g><g class="mark-text role-legend-label" pointer-events="none"><text text-anchor="start" transform="translate(16,9)" font-family="sans-serif" font-size="10px" fill="#000" opacity="1">Field/Wildlife Release</text></g></g><path class="foreground" aria-hidden="true" d="" pointer-events="none" display="none"/></g><g transform="translate(0,39)"><path class="background" aria-hidden="true" d="M0,0h144.955078125v11h-144.955078125Z" pointer-events="none" opacity="1"/><g><g class="mark-symbol role-legend-symbol" pointer-events="none"><path transform="translate(6,6)" d="M5,0A5,5,0,1,1,-5,0A5,5,0,1,1,5,0" fill="#ffbb78" stroke-width="1.5" opacity="1"/></g><g class="mark-text role-legend-label" pointer-events="none"><text text-anchor="start" transform="translate(16,9)" font-family="sans-serif" font-size="10px" fill="#000" opacity="1">Return to Owner</text></g></g><path class="foreground" aria-hidden="true" d="" pointer-events="none" display="none"/></g><g transform="translate(0,52)"><path class="background" aria-hidden="true" d="M0,0h144.955078125v11h-144.955078125Z" pointer-events="none" opacity="1"/><g><g class="mark-symbol role-legend-symbol" pointer-events="none"><path transform="translate(6,6)" d="M5,0A5,5,0,1,1,-5,0A5,5,0,1,1,5,0" fill="#2ca02c" stroke-width="1.5" opacity="1"/></g><g class="mark-text role-legend-label" pointer-events="none"><text text-anchor="start" transform="translate(16,9)" font-family="sans-serif" font-size="10px" fill="#000" opacity="1">Transfer Out</text></g></g><path class="foreground" aria-hidden="true" d="" pointer-events="none" display="none"/></g><g transform="translate(0,65)"><path class="background" aria-hidden="true" d="M0,0h144.955078125v11h-144.955078125Z" pointer-events="none" opacity="1"/><g><g class="mark-symbol role-legend-symbol" pointer-events="none"><path transform="translate(6,6)" d="M5,0A5,5,0,1,1,-5,0A5,5,0,1,1,5,0" fill="#98df8a" stroke-width="1.5" opacity="1"/></g><g class="mark-text role-legend-label" pointer-events="none"><text text-anchor="start" transform="translate(16,9)" font-family="sans-serif" font-size="10px" fill="#000" opacity="1">Unassisted Death in Custody</text></g></g><path class="foreground" aria-hidden="true" d="" pointer-events="none" display="none"/></g></g></g><path class="foreground" aria-hidden="true" d="" pointer-events="none" display="none"/></g></g><g class="mark-text role-legend-title" pointer-events="none"><text text-anchor="start" transform="translate(0,9)" font-family="sans-serif" font-size="11px" font-weight="bold" fill="#000" opacity="1">Outcome Type</text></g></g><path class="foreground" aria-hidden="true" d="" pointer-events="none" display="none"/></g></g><g class="mark-group role-title"><g transform="translate(150,-17)"><path class="background" aria-hidden="true" d="M0,0h0v0h0Z" pointer-events="none"/><g><g class="mark-text role-title-text" role="graphics-symbol" aria-roledescription="title" aria-label="Title text 'Cats by Outcome Type'" pointer-events="none"><text text-anchor="middle" transform="translate(0,10)" font-family="sans-serif" font-size="13px" font-weight="bold" fill="#000" opacity="1">Cats by Outcome Type</text></g></g><path class="foreground" aria-hidden="true" d="" pointer-events="none" display="none"/></g></g></g><path class="foreground" aria-hidden="true" d="" display="none"/></g></g></g></svg>