<svg xmlns="http://www.w3.org/2000/svg" xmlns:xlink="http://www.w3.org/1999/xlink" version="1.1" class="marks" width="1182" height="451" viewBox="0 0 1182 451"><rect width="1182" height="451" fill="white"/><g fill="none" stroke-miterlimit="10" transform="translate(14,46)"><g class="mark-group role-frame root" role="graphics-object" aria-roledescription="group mark container"><g transform="translate(0,0)"><path class="background" aria-hidden="true" d="M0,0h0v0h0Z"/><g><g class="mark-group role-column-title facet-title" role="graphics-object" aria-roledescription="group mark container"><g transform="translate(479,-20)"><path class="background" aria-hidden="true" d="M0,0h0v0h0Z"/><g><g class="mark-group role-title"><g transform="translate(0,-21)"><path class="background" aria-hidden="true" d="M0,0h0v0h0Z" pointer-events="none"/><g><g class="mark-text role-title-text" role="graphics-symbol" aria-roledescription="title" aria-label="Title text 'Intake Type'" pointer-events="none"><text text-anchor="middle" transform="translate(0,9)" font-family="sans-serif" font-size="11px" font-weight="bold" fill="#000" opacity="1">Intake Type</text></g></g><path class="foreground" aria-hidden="true" d="" pointer-events="none" display="none"/></g></g></g><path class="foreground" aria-hidden="true" d="" display="none"/></g></g><g class="mark-group role-scope cell" role="graphics-object" aria-roledescription="group mark container"><g transform="translate(0,0)"><path class="background" aria-hidden="true" d="M0,0h300v400h-300Z"/><g><g class="mark-arc role-mark child_layer_0_marks" role="graphics-object" aria-roledescription="arc mark container"><path aria-label="Count of Records: 95; Intake Sub-type: Stray" role="graphics-symbol" aria-roledescription="arc mark" transform="translate(150,200)" d="M0,-150A150,150,0,1,0,114.112,97.357L0,0Z" fill="#2ca02c"/><path aria-label="Count of Records: 16; Intake Sub-type: Owner/Guardian Surrender" role="graphics-symbol" aria-roledescription="arc mark" transform="translate(150,200)" d="M114.112,97.357A150,150,0,0,0,149.925,4.743L0,0Z" fill="#ff7f0e"/><path aria-label="Count of Records: 38; Intake Sub-type: null" role="graphics-symbol" aria-roledescription="arc mark" transform="translate(150,200)" d="M149.925,4.743A150,150,0,0,0,0,-150L0,0Z" fill="#1f77b4"/></g><g class="mark-text role-mark child_layer_1_marks" role="graphics-object" aria-roledescription="text mark container"><text aria-label="Count of Records: 95; Intake Sub-type: Stray" role="graphics-symbol" aria-roledescription="text mark" text-anchor="middle" transform="translate(0.17458769977406519,274.11834654465713)" font-family="sans-serif" font-size="15px" fill="#2ca02c">95</text><text aria-label="Count of Records: 16; Intake Sub-type: Owner/Guardian Surrender" role="graphics-symbol" aria-roledescription="text mark" text-anchor="middle" transform="translate(303.89485120186134,264.5094511280097)" font-family="sans-serif" font-size="15px" fill="#ff7f0e">16</text><text aria-label="Count of Records: 38; Intake Sub-type: null" role="graphics-symbol" aria-roledescription="text mark" text-anchor="middle" transform="translate(268.502943683775,90.18688080937767)" font-family="sans-serif" font-size="15px" fill="#1f77b4">38</text></g><g class="mark-group role-title"><g transform="translate(150,-20)"><path class="background" aria-hidden="true" d="M0,0h0v0h0Z" pointer-events="none"/><g><g class="mark-text role-title-text" role="graphics-symbol" aria-roledescription="title" aria-label="Title text 'Born in Care'" pointer-events="none"><text text-anchor="middle" transform="translate(0,8)" font-family="sans-serif" font-size="10px" fill="#000" opacity="1">Born in Care</text></g></g><path class="foreground" aria-hidden="true" d="" pointer-events="none" display="none"/></g></g></g><path class="foreground" aria-hidden="true" d="" display="none"/></g><g transform="translate(333,0)"><path class="background" aria-hidden="true" d="M0,0h300v400h-300Z"/><g><g class="mark-arc role-mark child_layer_0_marks" role="graphics-object" aria-roledescription="arc mark container"><path aria-label="Count of Records: 1785; Intake Sub-type: Trapper Pickup" role="graphics-symbol" aria-roledescription="arc mark" transform="translate(150,200)" d="M0,-150A150,150,0,1,0,88.052,-121.436L0,0Z" fill="#98df8a"/><path aria-label="Count of Records: 98; Intake Sub-type: Public Pickup" role="graphics-symbol" aria-roledescription="arc mark" transform="translate(150,200)" d="M88.052,-121.436A150,150,0,0,0,46.737,-142.533L0,0Z" fill="#ffbb78"/><path aria-label="Count of Records: 100; Intake Sub-type: Animal Control Pickup" role="graphics-symbol" aria-roledescription="arc mark" transform="translate(150,200)" d="M46.737,-142.533A150,150,0,0,0,0,-150L0,0Z" fill="#aec7e8"/></g><g class="mark-text role-mark child_layer_1_marks" role="graphics-object" aria-roledescription="text mark container"><text aria-label="Count of Records: 1785; Intake Sub-type: Trapper Pickup" role="graphics-symbol" aria-roledescription="text mark" text-anchor="middle" transform="translate(99.0867844840171,361.94854088465775)" font-family="sans-serif" font-size="15px" fill="#98df8a">1785</text><text aria-label="Count of Records: 98; Intake Sub-type: Public Pickup" role="graphics-symbol" aria-roledescription="text mark" text-anchor="middle" transform="translate(225.03650564005636,58.04925035465183)" font-family="sans-serif" font-size="15px" fill="#ffbb78">98</text><text aria-label="Count of Records: 100; Intake Sub-type: Animal Control Pickup" role="graphics-symbol" aria-roledescription="text mark" text-anchor="middle" transform="translate(176.0311205234023,42.066330169924356)" font-family="sans-serif" font-size="15px" fill="#aec7e8">100</text></g><g class="mark-group role-title"><g transform="translate(150,-20)"><path class="background" aria-hidden="true" d="M0,0h0v0h0Z" pointer-events="none"/><g><g class="mark-text role-title-text" role="graphics-symbol" aria-roledescription="title" aria-label="Title text 'Stray In'" pointer-events="none"><text text-anchor="middle" transform="translate(0,8)" font-family="sans-serif" font-size="10px" fill="#000" opacity="1">Stray In</text></g></g><path class="foreground" aria-hidden="true" d="" pointer-events="none" display="none"/></g></g></g><path class="foreground" aria-hidden="true" d="" display="none"/></g><g transform="translate(666,0)"><path class="background" aria-hidden="true" d="M0,0h300v400h-300Z"/><g><g class="mark-arc role-mark child_layer_0_marks" role="graphics-object" aria-roledescription="arc mark container"><path aria-label="Count of Records: 446; Intake Sub-type: null" role="graphics-symbol" aria-roledescription="arc mark" transform="translate(150,200)" d="M-2.108,-149.985A150,150,0,1,0,0,-150L0,0Z" fill="#1f77b4"/><path aria-label="Count of Records: 1; Intake Sub-type: Animal Control Pickup" role="graphics-symbol" aria-roledescription="arc mark" transform="translate(150,200)" d="M0,-150A150,150,0,0,0,-2.108,-149.985L0,0Z" fill="#aec7e8"/></g><g class="mark-text role-mark child_layer_1_marks" role="graphics-object" aria-roledescription="text mark container"><text aria-label="Count of Records: 446; Intake Sub-type: null" role="graphics-symbol" aria-roledescription="text mark" text-anchor="middle" transform="translate(151.15963874813065,369.99592491323483)" font-family="sans-serif" font-size="15px" fill="#1f77b4">446</text><text aria-label="Count of Records: 1; Intake Sub-type: Animal Control Pickup" role="graphics-symbol" aria-roledescription="text mark" text-anchor="middle" transform="translate(148.84036125186924,40.00407508676514)" font-family="sans-serif" font-size="15px" fill="#aec7e8">1</text></g><g class="mark-group role-title"><g transform="translate(150,-20)"><path class="background" aria-hidden="true" d="M0,0h0v0h0Z" pointer-events="none"/><g><g class="mark-text role-title-text" role="graphics-symbol" aria-roledescription="title" aria-label="Title text 'Transfer In'" pointer-events="none"><text text-anchor="middle" transform="translate(0,8)" font-family="sans-serif" font-size="10px" fill="#000" opacity="1">Transfer In</text></g></g><path class="foreground" aria-hidden="true" d="" pointer-events="none" display="none"/></g></g></g><path class="foreground" aria-hidden="true" d="" display="none"/></g></g><g class="mark-group role-legend" role="graphics-symbol" aria-roledescription="legend" aria-label="Symbol legend titled 'Intake Sub-type' for fill color with 6 values: null, Animal Control Pickup, Owner/Guardian Surrender, Public Pickup, Stray, Trapper Pickup"><g transform="translate(1026,0)"><path class="background" aria-hidden="true" d="M0,0h137v92h-137Z" pointer-events="none"/><g><g class="mark-group role-legend-entry"><g transform="translate(0,16)"><path class="background" aria-hidden="true" d="M0,0h0v0h0Z" pointer-events="none"/><g><g class="mark-group role-scope" role="graphics-object" aria-roledescription="group mark container"><g transform="translate(0,0)"><path class="background" aria-hidden="true" d="M0,0h136.615234375v11h-136.615234375Z" pointer-events="none" opacity="1"/><g><g class="mark-symbol role-legend-symbol" pointer-events="none"><path transform="translate(6,6)" d="M5,0A5,5,0,1,1,-5,0A5,5,0,1,1,5,0" fill="#1f77b4" stroke-width="1.5" opacity="1"/></g><g class="mark-text role-legend-label" pointer-events="none"><text text-anchor="start" transform="translate(16,9)" font-family="sans-serif" font-size="10px" fill="#000" opacity="1">null</text></g></g><path class="foreground" aria-hidden="true" d="" pointer-events="none" display="none"/></g><g transform="translate(0,13)"><path class="background" aria-hidden="true" d="M0,0h136.615234375v11h-136.615234375Z" pointer-events="none" opacity="1"/><g><g class="mark-symbol role-legend-symbol" pointer-events="none"><path transform="translate(6,6)" d="M5,0A5,5,0,1,1,-5,0A5,5,0,1,1,5,0" fill="#aec7e8" stroke-width="1.5" opacity="1"/></g><g class="mark-text role-legend-label" pointer-events="none"><text text-anchor="start" transform="translate(16,9)" font-family="sans-serif" font-size="10px" fill="#000" opacity="1">Animal Control Pickup</text></g></g><path class="foreground" aria-hidden="true" d="" pointer-events="none" display="none"/></g><g transform="translate(0,26)"><path class="background" aria-hidden="true" d="M0,0h136.615234375v11h-136.615234375Z" pointer-events="none" opacity="1"/><g><g class="mark-symbol role-legend-symbol" pointer-events="none"><path transform="translate(6,6)" d="M5,0A5,5,0,1,1,-5,0A5,5,0,1,1,5,0" fill="#ff7f0e" stroke-width="1.5" opacity="1"/></g><g class="mark-text role-legend-label" pointer-events="none"><text text-anchor="start" transform="translate(16,9)" font-family="sans-serif" font-size="10px" fill="#000" opacity="1">Owner/Guardian Surrender</text></g></g><path class="foreground" aria-hidden="true" d="" pointer-events="none" display="none"/></g><g transform="translate(0,39)"><path class="background" aria-hidden="true" d="M0,0h136.615234375v11h-136.615234375Z" pointer-events="none" opacity="1"/><g><g class="mark-symbol role-legend-symbol" pointer-events="none"><path transform="translate(6,6)" d="M5,0A5,5,0,1,1,-5,0A5,5,0,1,1,5,0" fill="#ffbb78" stroke-width="1.5" opacity="1"/></g><g class="mark-text role-legend-label" pointer-events="none"><text text-anchor="start" transform="translate(16,9)" font-family="sans-serif" font-size="10px" fill="#000" opacity="1">Public Pickup</text></g></g><path class="foreground" aria-hidden="true" d="" pointer-events="none" display="none"/></g><g transform="translate(0,52)"><path class="background" aria-hidden="true" d="M0,0h136.615234375v11h-136.615234375Z" pointer-events="none" opacity="1"/><g><g class="mark-symbol role-legend-symbol" pointer-events="none"><path transform="translate(6,6)" d="M5,0A5,5,0,1,1,-5,0A5,5,0,1,1,5,0" fill="#2ca02c" stroke-width="1.5" opacity="1"/></g><g class="mark-text role-legend-label" pointer-events="none"><text text-anchor="start" transform="translate(16,9)" font-family="sans-serif" font-size="10px" fill="#000" opacity="1">Stray</text></g></g><path class="foreground" aria-hidden="true" d="" pointer-events="none" display="none"/></g><g transform="translate(0,65)"><path class="background" aria-hidden="true" d="M0,0h136.615234375v11h-136.615234375Z" pointer-events="none" opacity="1"/><g><g class="mark-symbol role-legend-symbol" pointer-events="none"><path transform="translate(6,6)" d="M5,0A5,5,0,1,1,-5,0A5,5,0,1,1,5,0" fill="#98df8a" stroke-width="1.5" opacity="1"/></g><g class="mark-text role-legend-label" pointer-events="none"><text text-anchor="start" transform="translate(16,9)" font-family="sans-serif" font-size="10px" fill="#000" opacity="1">Trapper Pickup</text></g></g><path class="foreground" aria-hidden="true" d="" pointer-events="none" display="none"/></g></g></g><path class="foreground" aria-hidden="true" d="" pointer-events="none" display="none"/></g></g><g class="mark-text role-legend-title" pointer-events="none"><text text-anchor="start" transform="translate(0,9)" font-family="sans-serif" font-size="11px" font-weight="bold" fill="#000" opacity="1">Intake Sub-type</text></g></g><path class="foreground" aria-hidden="true" d="" pointer-events="none" display="none"/></g></g></g><path class="foreground" aria-hidden="true" d="" display="none"/></g></g></g></svg>