<svg xmlns="http://www.w3.org/2000/svg" xmlns:xlink="http://www.w3.org/1999/xlink" version="1.1" class="marks" width="1313" height="451" viewBox="0 0 1313 451"><rect width="1313" height="451" fill="white"/><g fill="none" stroke-miterlimit="10" transform="translate(29,46)"><g class="mark-group role-frame root" role="graphics-object" aria-roledescription="group mark container"><g transform="translate(0,0)"><path class="background" aria-hidden="true" d="M0,0h0v0h0Z"/><g><g class="mark-group role-column-title facet-title" role="graphics-object" aria-roledescription="group mark container"><g transform="translate(510,-20)"><path class="background" aria-hidden="true" d="M0,0h0v0h0Z"/><g><g class="mark-group role-title"><g transform="translate(0,-21)"><path class="background" aria-hidden="true" d="M0,0h0v0h0Z" pointer-events="none"/><g><g class="mark-text role-title-text" role="graphics-symbol" aria-roledescription="title" aria-label="Title text 'Origins'" pointer-events="none"><text text-anchor="middle" transform="translate(0,9)" font-family="sans-serif" font-size="11px" font-weight="bold" fill="#000" opacity="1">Origins</text></g></g><path class="foreground" aria-hidden="true" d="" pointer-events="none" display="none"/></g></g></g><path class="foreground" aria-hidden="true" d="" display="none"/></g></g><g class="mark-group role-scope cell" role="graphics-object" aria-roledescription="group mark container"><g transform="translate(0,0)"><path class="background" aria-hidden="true" d="M0,0h300v400h-300Z"/><g><g class="mark-arc role-mark child_layer_0_marks" role="graphics-object" aria-roledescription="arc mark container"><path aria-label="Count of Records: 3; Intake Sub-type: Aggression" role="graphics-symbol" aria-roledescription="arc mark" transform="translate(150,200)" d="M121.353,-88.168A150,150,0,0,0,0,-150L0,0Z" fill="#1f77b4"/><path aria-label="Count of Records: 2; Intake Sub-type: Not good with other pets at home" role="graphics-symbol" aria-roledescription="arc mark" transform="translate(150,200)" d="M46.353,142.658A150,150,0,0,0,121.353,88.168L0,0Z" fill="#ff9896"/><path aria-label="Count of Records: 1; Intake Sub-type: Owner medical" role="graphics-symbol" aria-roledescription="arc mark" transform="translate(150,200)" d="M0,150A150,150,0,0,0,46.353,142.658L0,0Z" fill="#9467bd"/><path aria-label="Count of Records: 10; Intake Sub-type: Unrealistic expectations" role="graphics-symbol" aria-roledescription="arc mark" transform="translate(150,200)" d="M0,-150A150,150,0,1,0,0,150L0,0Z" fill="#c5b0d5"/><path aria-label="Count of Records: 1; Intake Sub-type: Cannot afford/handle medical issues" role="graphics-symbol" aria-roledescription="arc mark" transform="translate(150,200)" d="M142.658,46.353A150,150,0,0,0,150,0L0,0Z" fill="#2ca02c"/><path aria-label="Count of Records: 1; Intake Sub-type: Behavior/temperament of resident pet" role="graphics-symbol" aria-roledescription="arc mark" transform="translate(150,200)" d="M150,0A150,150,0,0,0,142.658,-46.353L0,0Z" fill="#ff7f0e"/><path aria-label="Count of Records: 1; Intake Sub-type: Housesoiling" role="graphics-symbol" aria-roledescription="arc mark" transform="translate(150,200)" d="M121.353,88.168A150,150,0,0,0,142.658,46.353L0,0Z" fill="#98df8a"/><path aria-label="Count of Records: 1; Intake Sub-type: Allergies in family" role="graphics-symbol" aria-roledescription="arc mark" transform="translate(150,200)" d="M142.658,-46.353A150,150,0,0,0,121.353,-88.168L0,0Z" fill="#aec7e8"/></g><g class="mark-text role-mark child_layer_1_marks" role="graphics-object" aria-roledescription="text mark container"><text aria-label="Count of Records: 3; Intake Sub-type: Aggression" role="graphics-symbol" aria-roledescription="text mark" text-anchor="middle" transform="translate(224.90843245702524,57.983923508919304)" font-family="sans-serif" font-size="15px" fill="#1f77b4">3</text><text aria-label="Count of Records: 2; Intake Sub-type: Not good with other pets at home" role="graphics-symbol" aria-roledescription="text mark" text-anchor="middle" transform="translate(246.98456662825805,338.4878040718663)" font-family="sans-serif" font-size="15px" fill="#ff9896">2</text><text aria-label="Count of Records: 1; Intake Sub-type: Owner medical" role="graphics-symbol" aria-roledescription="text mark" text-anchor="middle" transform="translate(175.8116867316381,367.96857619819775)" font-family="sans-serif" font-size="15px" fill="#9467bd">1</text><text aria-label="Count of Records: 10; Intake Sub-type: Unrealistic expectations" role="graphics-symbol" aria-roledescription="text mark" text-anchor="middle" transform="translate(-15,205.00000000000003)" font-family="sans-serif" font-size="15px" fill="#c5b0d5">10</text><text aria-label="Count of Records: 1; Intake Sub-type: Cannot afford/handle medical issues" role="graphics-symbol" aria-roledescription="text mark" text-anchor="middle" transform="translate(312.96857619819775,230.81168673163813)" font-family="sans-serif" font-size="15px" fill="#2ca02c">1</text><text aria-label="Count of Records: 1; Intake Sub-type: Behavior/temperament of resident pet" role="graphics-symbol" aria-roledescription="text mark" text-anchor="middle" transform="translate(312.96857619819775,179.1883132683619)" font-family="sans-serif" font-size="15px" fill="#ff7f0e">1</text><text aria-label="Count of Records: 1; Intake Sub-type: Housesoiling" role="graphics-symbol" aria-roledescription="text mark" text-anchor="middle" transform="translate(297.0160764910807,279.90843245702524)" font-family="sans-serif" font-size="15px" fill="#98df8a">1</text><text aria-label="Count of Records: 1; Intake Sub-type: Allergies in family" role="graphics-symbol" aria-roledescription="text mark" text-anchor="middle" transform="translate(297.0160764910807,130.0915675429748)" font-family="sans-serif" font-size="15px" fill="#aec7e8">1</text></g><g class="mark-group role-title"><g transform="translate(150,-20)"><path class="background" aria-hidden="true" d="M0,0h0v0h0Z" pointer-events="none"/><g><g class="mark-text role-title-text" role="graphics-symbol" aria-roledescription="title" aria-label="Title text 'Owner Surrender'" pointer-events="none"><text text-anchor="middle" transform="translate(0,8)" font-family="sans-serif" font-size="10px" fill="#000" opacity="1">Owner Surrender</text></g></g><path class="foreground" aria-hidden="true" d="" pointer-events="none" display="none"/></g></g></g><path class="foreground" aria-hidden="true" d="" display="none"/></g><g transform="translate(362,0)"><path class="background" aria-hidden="true" d="M0,0h300v400h-300Z"/><g><g class="mark-arc role-mark child_layer_0_marks" role="graphics-object" aria-roledescription="arc mark container"><path aria-label="Count of Records: 41; Intake Sub-type: Unrealistic expectations" role="graphics-symbol" aria-roledescription="arc mark" transform="translate(150,200)" d="M0,-150A150,150,0,1,0,97.015,114.403L0,0Z" fill="#c5b0d5"/><path aria-label="Count of Records: 2; Intake Sub-type: Cannot afford/handle medical issues" role="graphics-symbol" aria-roledescription="arc mark" transform="translate(150,200)" d="M112.097,-99.671A150,150,0,0,0,91.547,-118.824L0,0Z" fill="#2ca02c"/><path aria-label="Count of Records: 1; Intake Sub-type: Cannot afford basic care (food - vaccines - etc)" role="graphics-symbol" aria-roledescription="arc mark" transform="translate(150,200)" d="M91.547,-118.824A150,150,0,0,0,80.017,-126.875L0,0Z" fill="#ffbb78"/><path aria-label="Count of Records: 4; Intake Sub-type: Not good with kids at home" role="graphics-symbol" aria-roledescription="arc mark" transform="translate(150,200)" d="M149.959,3.516A150,150,0,0,0,140.82,-51.67L0,0Z" fill="#d62728"/><path aria-label="Count of Records: 2; Intake Sub-type: Behavior/temperament of resident pet" role="graphics-symbol" aria-roledescription="arc mark" transform="translate(150,200)" d="M80.017,-126.875A150,150,0,0,0,54.957,-139.57L0,0Z" fill="#ff7f0e"/><path aria-label="Count of Records: 4; Intake Sub-type: Housesoiling" role="graphics-symbol" aria-roledescription="arc mark" transform="translate(150,200)" d="M140.82,-51.67A150,150,0,0,0,112.097,-99.671L0,0Z" fill="#98df8a"/><path aria-label="Count of Records: 5; Intake Sub-type: Not good with other pets at home" role="graphics-symbol" aria-roledescription="arc mark" transform="translate(150,200)" d="M132.184,70.903A150,150,0,0,0,149.959,3.516L0,0Z" fill="#ff9896"/><path aria-label="Count of Records: 2; Intake Sub-type: Allergies in family" role="graphics-symbol" aria-roledescription="arc mark" transform="translate(150,200)" d="M54.957,-139.57A150,150,0,0,0,27.969,-147.369L0,0Z" fill="#aec7e8"/><path aria-label="Count of Records: 2; Intake Sub-type: Aggression" role="graphics-symbol" aria-roledescription="arc mark" transform="translate(150,200)" d="M27.969,-147.369A150,150,0,0,0,0,-150L0,0Z" fill="#1f77b4"/><path aria-label="Count of Records: 4; Intake Sub-type: Owner medical" role="graphics-symbol" aria-roledescription="arc mark" transform="translate(150,200)" d="M97.015,114.403A150,150,0,0,0,132.184,70.903L0,0Z" fill="#9467bd"/></g><g class="mark-text role-mark child_layer_1_marks" role="graphics-object" aria-roledescription="text mark container"><text aria-label="Count of Records: 41; Intake Sub-type: Unrealistic expectations" role="graphics-symbol" aria-roledescription="text mark" text-anchor="middle" transform="translate(-4.901749464063727,261.837030296915)" font-family="sans-serif" font-size="15px" fill="#c5b0d5">41</text><text aria-label="Count of Records: 2; Intake Sub-type: Cannot afford/handle medical issues" role="graphics-symbol" aria-roledescription="text mark" text-anchor="middle" transform="translate(262.4982905558222,84.29732968149462)" font-family="sans-serif" font-size="15px" fill="#2ca02c">2</text><text aria-label="Count of Records: 1; Intake Sub-type: Cannot afford basic care (food - vaccines - etc)" role="graphics-symbol" aria-roledescription="text mark" text-anchor="middle" transform="translate(244.46398784989185,69.71676009388494)" font-family="sans-serif" font-size="15px" fill="#ffbb78">1</text><text aria-label="Count of Records: 4; Intake Sub-type: Not good with kids at home" role="graphics-symbol" aria-roledescription="text mark" text-anchor="middle" transform="translate(312.78300242928015,178.04273529994254)" font-family="sans-serif" font-size="15px" fill="#d62728">4</text><text aria-label="Count of Records: 2; Intake Sub-type: Behavior/temperament of resident pet" role="graphics-symbol" aria-roledescription="text mark" text-anchor="middle" transform="translate(224.56355180998906,57.80870697803124)" font-family="sans-serif" font-size="15px" fill="#ff7f0e">2</text><text aria-label="Count of Records: 4; Intake Sub-type: Housesoiling" role="graphics-symbol" aria-roledescription="text mark" text-anchor="middle" transform="translate(291.5873309193988,120.2767580700511)" font-family="sans-serif" font-size="15px" fill="#98df8a">4</text><text aria-label="Count of Records: 5; Intake Sub-type: Not good with other pets at home" role="graphics-symbol" aria-roledescription="text mark" text-anchor="middle" transform="translate(309.54341256979137,247.08205681267663)" font-family="sans-serif" font-size="15px" fill="#ff9896">5</text><text aria-label="Count of Records: 2; Intake Sub-type: Allergies in family" role="graphics-symbol" aria-roledescription="text mark" text-anchor="middle" transform="translate(195.81060022893757,46.486944049821346)" font-family="sans-serif" font-size="15px" fill="#aec7e8">2</text><text aria-label="Count of Records: 2; Intake Sub-type: Aggression" role="graphics-symbol" aria-roledescription="text mark" text-anchor="middle" transform="translate(165.45084577316788,40.72501296638683)" font-family="sans-serif" font-size="15px" fill="#1f77b4">2</text><text aria-label="Count of Records: 4; Intake Sub-type: Owner medical" role="graphics-symbol" aria-roledescription="text mark" text-anchor="middle" transform="translate(278.3101928020691,308.73762298749597)" font-family="sans-serif" font-size="15px" fill="#9467bd">4</text></g><g class="mark-group role-title"><g transform="translate(150,-20)"><path class="background" aria-hidden="true" d="M0,0h0v0h0Z" pointer-events="none"/><g><g class="mark-text role-title-text" role="graphics-symbol" aria-roledescription="title" aria-label="Title text 'Stray In'" pointer-events="none"><text text-anchor="middle" transform="translate(0,8)" font-family="sans-serif" font-size="10px" fill="#000" opacity="1">Stray In</text></g></g><path class="foreground" aria-hidden="true" d="" pointer-events="none" display="none"/></g></g></g><path class="foreground" aria-hidden="true" d="" display="none"/></g><g transform="translate(724,0)"><path class="background" aria-hidden="true" d="M0,0h300v400h-300Z"/><g><g class="mark-arc role-mark child_layer_0_marks" role="graphics-object" aria-roledescription="arc mark container"><path aria-label="Count of Records: 4; Intake Sub-type: Allergies in family" role="graphics-symbol" aria-roledescription="arc mark" transform="translate(150,200)" d="M133.183,-69.01A150,150,0,0,0,0,-150L0,0Z" fill="#aec7e8"/><path aria-label="Count of Records: 3; Intake Sub-type: Not good with other pets at home" role="graphics-symbol" aria-roledescription="arc mark" transform="translate(150,200)" d="M20.425,148.603A150,150,0,0,0,122.545,86.502L0,0Z" fill="#ff9896"/><path aria-label="Count of Records: 12; Intake Sub-type: Unrealistic expectations" role="graphics-symbol" aria-roledescription="arc mark" transform="translate(150,200)" d="M0,-150A150,150,0,1,0,20.425,148.603L0,0Z" fill="#c5b0d5"/><path aria-label="Count of Records: 1; Intake Sub-type: Housesoiling" role="graphics-symbol" aria-roledescription="arc mark" transform="translate(150,200)" d="M122.545,86.502A150,150,0,0,0,141.339,50.232L0,0Z" fill="#98df8a"/><path aria-label="Count of Records: 3; Intake Sub-type: Cannot afford/handle medical issues" role="graphics-symbol" aria-roledescription="arc mark" transform="translate(150,200)" d="M141.339,50.232A150,150,0,0,0,133.183,-69.01L0,0Z" fill="#2ca02c"/></g><g class="mark-text role-mark child_layer_1_marks" role="graphics-object" aria-roledescription="text mark container"><text aria-label="Count of Records: 4; Intake Sub-type: Allergies in family" role="graphics-symbol" aria-roledescription="text mark" text-anchor="middle" transform="translate(235.73135175584653,64.0207982498294)" font-family="sans-serif" font-size="15px" fill="#aec7e8">4</text><text aria-label="Count of Records: 3; Intake Sub-type: Not good with other pets at home" role="graphics-symbol" aria-roledescription="text mark" text-anchor="middle" transform="translate(235.7313517558465,345.97920175017066)" font-family="sans-serif" font-size="15px" fill="#ff9896">3</text><text aria-label="Count of Records: 12; Intake Sub-type: Unrealistic expectations" role="graphics-symbol" aria-roledescription="text mark" text-anchor="middle" transform="translate(-14.615346916438966,216.25999820517077)" font-family="sans-serif" font-size="15px" fill="#c5b0d5">12</text><text aria-label="Count of Records: 1; Intake Sub-type: Housesoiling" role="graphics-symbol" aria-roledescription="text mark" text-anchor="middle" transform="translate(296.5010610363919,280.9107312256401)" font-family="sans-serif" font-size="15px" fill="#98df8a">1</text><text aria-label="Count of Records: 3; Intake Sub-type: Cannot afford/handle medical issues" role="graphics-symbol" aria-roledescription="text mark" text-anchor="middle" transform="translate(314.61534691643897,193.74000179482928)" font-family="sans-serif" font-size="15px" fill="#2ca02c">3</text></g><g class="mark-group role-title"><g transform="translate(150,-20)"><path class="background" aria-hidden="true" d="M0,0h0v0h0Z" pointer-events="none"/><g><g class="mark-text role-title-text" role="graphics-symbol" aria-roledescription="title" aria-label="Title text 'Transfer In'" pointer-events="none"><text text-anchor="middle" transform="translate(0,8)" font-family="sans-serif" font-size="10px" fill="#000" opacity="1">Transfer In</text></g></g><path class="foreground" aria-hidden="true" d="" pointer-events="none" display="none"/></g></g></g><path class="foreground" aria-hidden="true" d="" display="none"/></g></g><g class="mark-group role-legend" role="graphics-symbol" aria-roledescription="legend" aria-label="Symbol legend titled 'Intake Sub-type' for fill color with 10 values: Aggression, Allergies in family, Behavior/temperament of resident pet, Cannot afford basic care (food - vaccines - etc), Cannot afford/handle medical issues, ending with Unrealistic expectations"><g transform="translate(1103,0)"><path class="background" aria-hidden="true" d="M0,0h176v144h-176Z" pointer-events="none"/><g><g class="mark-group role-legend-entry"><g transform="translate(0,16)"><path class="background" aria-hidden="true" d="M0,0h0v0h0Z" pointer-events="none"/><g><g class="mark-group role-scope" role="graphics-object" aria-roledescription="group mark container"><g transform="translate(0,0)"><path class="background" aria-hidden="true" d="M0,0h176v11h-176Z" pointer-events="none" opacity="1"/><g><g class="mark-symbol role-legend-symbol" pointer-events="none"><path transform="translate(6,6)" d="M5,0A5,5,0,1,1,-5,0A5,5,0,1,1,5,0" fill="#1f77b4" stroke-width="1.5" opacity="1"/></g><g class="mark-text role-legend-label" pointer-events="none"><text text-anchor="start" transform="translate(16,9)" font-family="sans-serif" font-size="10px" fill="#000" opacity="1">Aggression</text></g></g><path class="foreground" aria-hidden="true" d="" pointer-events="none" display="none"/></g><g transform="translate(0,13)"><path class="background" aria-hidden="true" d="M0,0h176v11h-176Z" pointer-events="none" opacity="1"/><g><g class="mark-symbol role-legend-symbol" pointer-events="none"><path transform="translate(6,6)" d="M5,0A5,5,0,1,1,-5,0A5,5,0,1,1,5,0" fill="#aec7e8" stroke-width="1.5" opacity="1"/></g><g class="mark-text role-legend-label" pointer-events="none"><text text-anchor="start" transform="translate(16,9)" font-family="sans-serif" font-size="10px" fill="#000" opacity="1">Allergies in family</text></g></g><path class="foreground" aria-hidden="true" d="" pointer-events="none" display="none"/></g><g transform="translate(0,26)"><path class="background" aria-hidden="true" d="M0,0h176v11h-176Z" pointer-events="none" opacity="1"/><g><g class="mark-symbol role-legend-symbol" pointer-events="none"><path transform="translate(6,6)" d="M5,0A5,5,0,1,1,-5,0A5,5,0,1,1,5,0" fill="#ff7f0e" stroke-width="1.5" opacity="1"/></g><g class="mark-text role-legend-label" pointer-events="none"><text text-anchor="start" transform="translate(16,9)" font-family="sans-serif" font-size="10px" fill="#000" opacity="1">Behavior/temperament of residen…</text></g></g><path class="foreground" aria-hidden="true" d="" pointer-events="none" display="none"/></g><g transform="translate(0,39)"><path class="background" aria-hidden="true" d="M0,0h176v11h-176Z" pointer-events="none" opacity="1"/><g><g class="mark-symbol role-legend-symbol" pointer-events="none"><path transform="translate(6,6)" d="M5,0A5,5,0,1,1,-5,0A5,5,0,1,1,5,0" fill="#ffbb78" stroke-width="1.5" opacity="1"/></g><g class="mark-text role-legend-label" pointer-events="none"><text text-anchor="start" transform="translate(16,9)" font-family="sans-serif" font-size="10px" fill="#000" opacity="1">Cannot afford basic care (food - v…</text></g></g><path class="foreground" aria-hidden="true" d="" pointer-events="none" display="none"/></g><g transform="translate(0,52)"><path class="background" aria-hidden="true" d="M0,0h176v11h-176Z" pointer-events="none" opacity="1"/><g><g class="mark-symbol role-legend-symbol" pointer-events="none"><path transform="translate(6,6)" d="M5,0A5,5,0,1,1,-5,0A5,5,0,1,1,5,0" fill="#2ca02c" stroke-width="1.5" opacity="1"/></g><g class="mark-text role-legend-label" pointer-events="none"><text text-anchor="start" transform="translate(16,9)" font-family="sans-serif" font-size="10px" fill="#000" opacity="1">Cannot afford/handle medical iss…</text></g></g><path class="foreground" aria-hidden="true" d="" pointer-events="none" display="none"/></g><g transform="translate(0,65)"><path class="background" aria-hidden="true" d="M0,0h176v11h-176Z" pointer-events="none" opacity="1"/><g><g class="mark-symbol role-legend-symbol" pointer-events="none"><path transform="translate(6,6)" d="M5,0A5,5,0,1,1,-5,0A5,5,0,1,1,5,0" fill="#98df8a" stroke-width="1.5" opacity="1"/></g><g class="mark-text role-legend-label" pointer-events="none"><text text-anchor="start" transform="translate(16,9)" font-family="sans-serif" font-size="10px" fill="#000" opacity="1">Housesoiling</text></g></g><path class="foreground" aria-hidden="true" d="" pointer-events="none" display="none"/></g><g transform="translate(0,78)"><path class="background" aria-hidden="true" d="M0,0h176v11h-176Z" pointer-events="none" opacity="1"/><g><g class="mark-symbol role-legend-symbol" pointer-events="none"><path transform="translate(6,6)" d="M5,0A5,5,0,1,1,-5,0A5,5,0,1,1,5,0" fill="#d62728" stroke-width="1.5" opacity="1"/></g><g class="mark-text role-legend-label" pointer-events="none"><text text-anchor="start" transform="translate(16,9)" font-family="sans-serif" font-size="10px" fill="#000" opacity="1">Not good with kids at home</text></g></g><path class="foreground" aria-hidden="true" d="" pointer-events="none" display="none"/></g><g transform="translate(0,91)"><path class="background" aria-hidden="true" d="M0,0h176v11h-176Z" pointer-events="none" opacity="1"/><g><g class="mark-symbol role-legend-symbol" pointer-events="none"><path transform="translate(6,6)" d="M5,0A5,5,0,1,1,-5,0A5,5,0,1,1,5,0" fill="#ff9896" stroke-width="1.5" opacity="1"/></g><g class="mark-text role-legend-label" pointer-events="none"><text text-anchor="start" transform="translate(16,9)" font-family="sans-serif" font-size="10px" fill="#000" opacity="1">Not good with other pets at home</text></g></g><path class="foreground" aria-hidden="true" d="" pointer-events="none" display="none"/></g><g transform="translate(0,104)"><path class="background" aria-hidden="true" d="M0,0h176v11h-176Z" pointer-events="none" opacity="1"/><g><g class="mark-symbol role-legend-symbol" pointer-events="none"><path transform="translate(6,6)" d="M5,0A5,5,0,1,1,-5,0A5,5,0,1,1,5,0" fill="#9467bd" stroke-width="1.5" opacity="1"/></g><g class="mark-text role-legend-label" pointer-events="none"><text text-anchor="start" transform="translate(16,9)" font-family="sans-serif" font-size="10px" fill="#000" opacity="1">Owner medical</text></g></g><path class="foreground" aria-hidden="true" d="" pointer-events="none" display="none"/></g><g transform="translate(0,117)"><path class="background" aria-hidden="true" d="M0,0h176v11h-176Z" pointer-events="none" opacity="1"/><g><g class="mark-symbol role-legend-symbol" pointer-events="none"><path transform="translate(6,6)" d="M5,0A5,5,0,1,1,-5,0A5,5,0,1,1,5,0" fill="#c5b0d5" stroke-width="1.5" opacity="1"/></g><g class="mark-text role-legend-label" pointer-events="none"><text text-anchor="start" transform="translate(16,9)" font-family="sans-serif" font-size="10px" fill="#000" opacity="1">Unrealistic expectations</text></g></g><path class="foreground" aria-hidden="true" d="" pointer-events="none" display="none"/></g></g></g><path class="foreground" aria-hidden="true" d="" pointer-events="none" display="none"/></g></g><g class="mark-text role-legend-title" pointer-events="none"><text text-anchor="start" transform="translate(0,9)" font-family="sans-serif" font-size="11px" font-weight="bold" fill="#000" opacity="1">Intake Sub-type</text></g></g><path class="foreground" aria-hidden="true" d="" pointer-events="none" display="none"/></g></g></g><path class="foreground" aria-hidden="true" d="" display="none"/></g></g></g></svg>