<svg xmlns="http://www.w3.org/2000/svg" xmlns:xlink="http://www.w3.org/1999/xlink" version="1.1" class="marks" width="747" height="364" viewBox="0 0 747 364"><rect width="747" height="364" fill="white"/><g fill="none" stroke-miterlimit="10" transform="translate(33,27)"><g class="mark-group role-frame root" role="graphics-object" aria-roledescription="group mark container"><g transform="translate(0,0)"><path class="background" aria-hidden="true" d="M0.5,0.5h650v300h-650Z" stroke="#ddd"/><g><g class="mark-group role-axis" aria-hidden="true"><g transform="translate(0.5,300.5)"><path class="background" aria-hidden="true" d="M0,0h0v0h0Z" pointer-events="none"/><g><g class="mark-rule role-axis-grid" pointer-events="none"><line transform="translate(0,-300)" x2="0" y2="300" stroke="#ddd" stroke-width="1" opacity="1"/><line transform="translate(60,-300)" x2="0" y2="300" stroke="#ddd" stroke-width="1" opacity="1"/><line transform="translate(116,-300)" x2="0" y2="300" stroke="#ddd" stroke-width="1" opacity="1"/><line transform="translate(176,-300)" x2="0" y2="300" stroke="#ddd" stroke-width="1" opacity="1"/><line transform="translate(235,-300)" x2="0" y2="300" stroke="#ddd" stroke-width="1" opacity="1"/><line transform="translate(295,-300)" x2="0" y2="300" stroke="#ddd" stroke-width="1" opacity="1"/><line transform="translate(353,-300)" x2="0" y2="300" stroke="#ddd" stroke-width="1" opacity="1"/><line transform="translate(413,-300)" x2="0" y2="300" stroke="#ddd" stroke-width="1" opacity="1"/><line transform="translate(473,-300)" x2="0" y2="300" stroke="#ddd" stroke-width="1" opacity="1"/><line transform="translate(532,-300)" x2="0" y2="300" stroke="#ddd" stroke-width="1" opacity="1"/><line transform="translate(592,-300)" x2="0" y2="300" stroke="#ddd" stroke-width="1" opacity="1"/><line transform="translate(650,-300)" x2="0" y2="300" stroke="#ddd" stroke-width="1" opacity="1"/></g></g><path class="foreground" aria-hidden="true" d="" pointer-events="none" display="none"/></g></g><g class="mark-group role-axis" aria-hidden="true"><g transform="translate(0.5,0.5)"><path class="background" aria-hidden="true" d="M0,0h0v0h0Z" pointer-events="none"/><g><g class="mark-rule role-axis-grid" pointer-events="none"><line transform="translate(0,300)" x2="650" y2="0" stroke="#ddd" stroke-width="1" opacity="1"/><line transform="translate(0,250)" x2="650" y2="0" stroke="#ddd" stroke-width="1" opacity="1"/><line transform="translate(0,200)" x2="650" y2="0" stroke="#ddd" stroke-width="1" opacity="1"/><line transform="translate(0,150)" x2="650" y2="0" stroke="#ddd" stroke-width="1" opacity="1"/><line transform="translate(0,100)" x2="650" y2="0" stroke="#ddd" stroke-width="1" opacity="1"/><line transform="translate(0,50)" x2="650" y2="0" stroke="#ddd" stroke-width="1" opacity="1"/><line transform="translate(0,0)" x2="650" y2="0" stroke="#ddd" stroke-width="1" opacity="1"/></g></g><path class="foreground" aria-hidden="true" d="" pointer-events="none" display="none"/></g></g><g class="mark-group role-axis" role="graphics-symbol" aria-roledescription="axis" aria-label="X-axis titled 'Intake Date (month)' for a time scale with values from January to December"><g transform="translate(0.5,300.5)"><path class="background" aria-hidden="true" d="M0,0h0v0h0Z" pointer-events="none"/><g><g class="mark-rule role-axis-tick" pointer-events="none"><line transform="translate(0,0)" x2="0" y2="5" stroke="#888" stroke-width="1" opacity="1"/><line transform="translate(60,0)" x2="0" y2="5" stroke="#888" stroke-width="1" opacity="1"/><line transform="translate(116,0)" x2="0" y2="5" stroke="#888" stroke-width="1" opacity="1"/><line transform="translate(176,0)" x2="0" y2="5" stroke="#888" stroke-width="1" opacity="1"/><line transform="translate(235,0)" x2="0" y2="5" stroke="#888" stroke-width="1" opacity="1"/><line transform="translate(295,0)" x2="0" y2="5" stroke="#888" stroke-width="1" opacity="1"/><line transform="translate(353,0)" x2="0" y2="5" stroke="#888" stroke-width="1" opacity="1"/><line transform="translate(413,0)" x2="0" y2="5" stroke="#888" stroke-width="1" opacity="1"/><line transform="translate(473,0)" x2="0" y2="5" stroke="#888" stroke-width="1" opacity="1"/><line transform="translate(532,0)" x2="0" y2="5" stroke="#888" stroke-width="1" opacity="1"/><line transform="translate(592,0)" x2="0" y2="5" stroke="#888" stroke-width="1" opacity="1"/><line transform="translate(650,0)" x2="0" y2="5" stroke="#888" stroke-width="1" opacity="1"/></g><g class="mark-text role-axis-label" pointer-events="none"><text text-anchor="start" transform="translate(0,15)" font-family="sans-serif" font-size="10px" fill="#000" opacity="1">Jan</text><text text-anchor="middle" transform="translate(60.14925373134328,15)" font-family="sans-serif" font-size="10px" fill="#000" opacity="1">Feb</text><text text-anchor="middle" transform="translate(116.41791044776119,15)" font-family="sans-serif" font-size="10px" fill="#000" opacity="1">Mar</text><text text-anchor="middle" transform="translate(176.4863184079602,15)" font-family="sans-serif" font-size="10px" fill="#000" opacity="1">Apr</text><text text-anchor="middle" transform="translate(234.6952736318408,15)" font-family="sans-serif" font-size="10px" fill="#000" opacity="1">May</text><text text-anchor="middle" transform="translate(294.84452736318406,15)" font-family="sans-serif" font-size="10px" fill="#000" opacity="1">Jun</text><text text-anchor="middle" transform="translate(353.0534825870647,15)" font-family="sans-serif" font-size="10px" fill="#000" opacity="1">Jul</text><text text-anchor="middle" transform="translate(413.202736318408,15)" font-family="sans-serif" font-size="10px" fill="#000" opacity="1">Aug</text><text text-anchor="middle" transform="translate(473.35199004975124,15)" font-family="sans-serif" font-size="10px" fill="#000" opacity="1">Sep</text><text text-anchor="middle" transform="translate(531.5609452736318,15)" font-family="sans-serif" font-size="10px" fill="#000" opacity="1">Oct</text><text text-anchor="middle" transform="translate(591.7101990049752,15)" font-family="sans-serif" font-size="10px" fill="#000" opacity="1">Nov</text><text text-anchor="end" transform="translate(650,15)" font-family="sans-serif" font-size="10px" fill="#000" opacity="1">Dec</text></g><g class="mark-rule role-axis-domain" pointer-events="none"><line transform="translate(0,0)" x2="650" y2="0" stroke="#888" stroke-width="1" opacity="1"/></g><g class="mark-text role-axis-title" pointer-events="none"><text text-anchor="middle" transform="translate(325,30)" font-family="sans-serif" font-size="11px" font-weight="bold" fill="#000" opacity="1">Intake Date (month)</text></g></g><path class="foreground" aria-hidden="true" d="" pointer-events="none" display="none"/></g></g><g class="mark-group role-axis" role="graphics-symbol" aria-roledescription="axis" aria-label="Y-axis titled 'Count of Records' for a linear scale with values from 0 to 6"><g transform="translate(0.5,0.5)"><path class="background" aria-hidden="true" d="M0,0h0v0h0Z" pointer-events="none"/><g><g class="mark-rule role-axis-tick" pointer-events="none"><line transform="translate(0,300)" x2="-5" y2="0" stroke="#888" stroke-width="1" opacity="1"/><line transform="translate(0,250)" x2="-5" y2="0" stroke="#888" stroke-width="1" opacity="1"/><line transform="translate(0,200)" x2="-5" y2="0" stroke="#888" stroke-width="1" opacity="1"/><line transform="translate(0,150)" x2="-5" y2="0" stroke="#888" stroke-width="1" opacity="1"/><line transform="translate(0,100)" x2="-5" y2="0" stroke="#888" stroke-width="1" opacity="1"/><line transform="translate(0,50)" x2="-5" y2="0" stroke="#888" stroke-width="1" opacity="1"/><line transform="translate(0,0)" x2="-5" y2="0" stroke="#888" stroke-width="1" opacity="1"/></g><g class="mark-text role-axis-label" pointer-events="none"><text text-anchor="end" transform="translate(-7,303)" font-family="sans-serif" font-size="10px" fill="#000" opacity="1">0</text><text text-anchor="end" transform="translate(-7,253)" font-family="sans-serif" font-size="10px" fill="#000" opacity="1">1</text><text text-anchor="end" transform="translate(-7,203.00000000000003)" font-family="sans-serif" font-size="10px" fill="#000" opacity="1">2</text><text text-anchor="end" transform="translate(-7,153)" font-family="sans-serif" font-size="10px" fill="#000" opacity="1">3</text><text text-anchor="end" transform="translate(-7,103.00000000000001)" font-family="sans-serif" font-size="10px" fill="#000" opacity="1">4</text><text text-anchor="end" transform="translate(-7,52.999999999999986)" font-family="sans-serif" font-size="10px" fill="#000" opacity="1">5</text><text text-anchor="end" transform="translate(-7,3)" font-family="sans-serif" font-size="10px" fill="#000" opacity="1">6</text></g><g class="mark-rule role-axis-domain" pointer-events="none"><line transform="translate(0,300)" x2="0" y2="-300" stroke="#888" stroke-width="1" opacity="1"/></g><g class="mark-text role-axis-title" pointer-events="none"><text text-anchor="middle" transform="translate(-16.5615234375,150) rotate(-90) translate(0,-2)" font-family="sans-serif" font-size="11px" font-weight="bold" fill="#000" opacity="1">Count of Records</text></g></g><path class="foreground" aria-hidden="true" d="" pointer-events="none" display="none"/></g></g><g class="mark-group role-scope layer_0_pathgroup" role="graphics-object" aria-roledescription="group mark container"><g transform="translate(0,0)"><path class="background" aria-hidden="true" d="M0,0h650v300h-650Z"/><g><g class="mark-line role-mark layer_0_marks" role="graphics-object" aria-roledescription="line mark container"><path aria-label="Intake Date (month): Jan; Count of Records: 2; Year: 2024" role="graphics-symbol" aria-roledescription="line mark" d="M0,200L60.149,200L116.418,150L176.486,50L234.695,50L294.845,200L353.053,200L413.203,200L473.352,250L531.561,100L591.71,200L650,150" stroke="#d62728" stroke-width="2"/></g></g><path class="foreground" aria-hidden="true" d="" display="none"/></g><g transform="translate(0,0)"><path class="background" aria-hidden="true" d="M0,0h650v300h-650Z"/><g><g class="mark-line role-mark layer_0_marks" role="graphics-object" aria-roledescription="line mark container"><path aria-label="Intake Date (month): Jan; Count of Records: 1; Year: 2023" role="graphics-symbol" aria-roledescription="line mark" d="M0,250L60.149,250L234.695,100L294.845,200L353.053,200L413.203,50L473.352,200L531.561,150L591.71,200L650,200" stroke="#2ca02c" stroke-width="2"/></g></g><path class="foreground" aria-hidden="true" d="" display="none"/></g><g transform="translate(0,0)"><path class="background" aria-hidden="true" d="M0,0h650v300h-650Z"/><g><g class="mark-line role-mark layer_0_marks" role="graphics-object" aria-roledescription="line mark container"><path aria-label="Intake Date (month): Apr; Count of Records: 1; Year: 2021" role="graphics-symbol" aria-roledescription="line mark" d="M176.486,250L234.695,250L294.845,150L413.203,150L473.352,200L531.561,150L591.71,200L650,100" stroke="#1f77b4" stroke-width="2"/></g></g><path class="foreground" aria-hidden="true" d="" display="none"/></g><g transform="translate(0,0)"><path class="background" aria-hidden="true" d="M0,0h650v300h-650Z"/><g><g class="mark-line role-mark layer_0_marks" role="graphics-object" aria-roledescription="line mark container"><path aria-label="Intake Date (month): Apr; Count of Records: 1; Year: 2022" role="graphics-symbol" aria-roledescription="line mark" d="M176.486,250L234.695,250L294.845,250L473.352,50L531.561,250L591.71,150L650,200" stroke="#ff7f0e" stroke-width="2"/></g></g><path class="foreground" aria-hidden="true" d="" display="none"/></g><g transform="translate(0,0)"><path class="background" aria-hidden="true" d="M0,0h650v300h-650Z"/><g><g class="mark-line role-mark layer_0_marks" role="graphics-object" aria-roledescription="line mark container"><path aria-label="Intake Date (month): Jan; Count of Records: 1; Year: 2025" role="graphics-symbol" aria-roledescription="line mark" d="M0,250L60.149,200L116.418,250L176.486,250L234.695,0L294.845,150L353.053,150L413.203,200L473.352,250" stroke="#9467bd" stroke-width="2"/></g></g><path class="foreground" aria-hidden="true" d="" display="none"/></g></g><g class="mark-symbol role-mark layer_1_marks" role="graphics-object" aria-roledescription="symbol mark container"><path aria-label="Intake Date (month): May; Count of Records: 5; Year: 2024" role="graphics-symbol" aria-roledescription="point" transform="translate(234.6952736318408,49.999999999999986)" d="M2.739,0A2.739,2.739,0,1,1,-2.739,0A2.739,2.739,0,1,1,2.739,0" fill="#d62728" stroke-width="2" opacity="1"/><path aria-label="Intake Date (month): Jan; Count of Records: 1; Year: 2023" role="graphics-symbol" aria-roledescription="point" transform="translate(0,250)" d="M2.739,0A2.739,2.739,0,1,1,-2.739,0A2.739,2.739,0,1,1,2.739,0" fill="#2ca02c" stroke-width="2" opacity="1"/><path aria-label="Intake Date (month): Aug; Count of Records: 3; Year: 2021" role="graphics-symbol" aria-roledescription="point" transform="translate(413.202736318408,150)" d="M2.739,0A2.739,2.739,0,1,1,-2.739,0A2.739,2.739,0,1,1,2.739,0" fill="#1f77b4" stroke-width="2" opacity="1"/><path aria-label="Intake Date (month): Nov; Count of Records: 2; Year: 2024" role="graphics-symbol" aria-roledescription="point" transform="translate(591.7101990049752,200.00000000000003)" d="M2.739,0A2.739,2.739,0,1,1,-2.739,0A2.739,2.739,0,1,1,2.739,0" fill="#d62728" stroke-width="2" opacity="1"/><path aria-label="Intake Date (month): Jun; Count of Records: 2; Year: 2024" role="graphics-symbol" aria-roledescription="point" transform="translate(294.84452736318406,200.00000000000003)" d="M2.739,0A2.739,2.739,0,1,1,-2.739,0A2.739,2.739,0,1,1,2.739,0" fill="#d62728" stroke-width="2" opacity="1"/><path aria-label="Intake Date (month): Feb; Count of Records: 1; Year: 2023" role="graphics-symbol" aria-roledescription="point" transform="translate(60.14925373134328,250)" d="M2.739,0A2.739,2.739,0,1,1,-2.739,0A2.739,2.739,0,1,1,2.739,0" fill="#2ca02c" stroke-width="2" opacity="1"/><path aria-label="Intake Date (month): Dec; Count of Records: 2; Year: 2023" role="graphics-symbol" aria-roledescription="point" transform="translate(650,200.00000000000003)" d="M2.739,0A2.739,2.739,0,1,1,-2.739,0A2.739,2.739,0,1,1,2.739,0" fill="#2ca02c" stroke-width="2" opacity="1"/><path aria-label="Intake Date (month): Jul; Count of Records: 2; Year: 2023" role="graphics-symbol" aria-roledescription="point" transform="translate(353.0534825870647,200.00000000000003)" d="M2.739,0A2.739,2.739,0,1,1,-2.739,0A2.739,2.739,0,1,1,2.739,0" fill="#2ca02c" stroke-width="2" opacity="1"/><path aria-label="Intake Date (month): Aug; Count of Records: 5; Year: 2023" role="graphics-symbol" aria-roledescription="point" transform="translate(413.202736318408,49.999999999999986)" d="M2.739,0A2.739,2.739,0,1,1,-2.739,0A2.739,2.739,0,1,1,2.739,0" fill="#2ca02c" stroke-width="2" opacity="1"/><path aria-label="Intake Date (month): Sep; Count of Records: 2; Year: 2021" role="graphics-symbol" aria-roledescription="point" transform="translate(473.35199004975124,200.00000000000003)" d="M2.739,0A2.739,2.739,0,1,1,-2.739,0A2.739,2.739,0,1,1,2.739,0" fill="#1f77b4" stroke-width="2" opacity="1"/><path aria-label="Intake Date (month): Apr; Count of Records: 1; Year: 2021" role="graphics-symbol" aria-roledescription="point" transform="translate(176.4863184079602,250)" d="M2.739,0A2.739,2.739,0,1,1,-2.739,0A2.739,2.739,0,1,1,2.739,0" fill="#1f77b4" stroke-width="2" opacity="1"/><path aria-label="Intake Date (month): Jan; Count of Records: 2; Year: 2024" role="graphics-symbol" aria-roledescription="point" transform="translate(0,200.00000000000003)" d="M2.739,0A2.739,2.739,0,1,1,-2.739,0A2.739,2.739,0,1,1,2.739,0" fill="#d62728" stroke-width="2" opacity="1"/><path aria-label="Intake Date (month): Oct; Count of Records: 3; Year: 2021" role="graphics-symbol" aria-roledescription="point" transform="translate(531.5609452736318,150)" d="M2.739,0A2.739,2.739,0,1,1,-2.739,0A2.739,2.739,0,1,1,2.739,0" fill="#1f77b4" stroke-width="2" opacity="1"/><path aria-label="Intake Date (month): May; Count of Records: 1; Year: 2021" role="graphics-symbol" aria-roledescription="point" transform="translate(234.6952736318408,250)" d="M2.739,0A2.739,2.739,0,1,1,-2.739,0A2.739,2.739,0,1,1,2.739,0" fill="#1f77b4" stroke-width="2" opacity="1"/><path aria-label="Intake Date (month): Feb; Count of Records: 2; Year: 2024" role="graphics-symbol" aria-roledescription="point" transform="translate(60.14925373134328,200.00000000000003)" d="M2.739,0A2.739,2.739,0,1,1,-2.739,0A2.739,2.739,0,1,1,2.739,0" fill="#d62728" stroke-width="2" opacity="1"/><path aria-label="Intake Date (month): Jul; Count of Records: 2; Year: 2024" role="graphics-symbol" aria-roledescription="point" transform="translate(353.0534825870647,200.00000000000003)" d="M2.739,0A2.739,2.739,0,1,1,-2.739,0A2.739,2.739,0,1,1,2.739,0" fill="#d62728" stroke-width="2" opacity="1"/><path aria-label="Intake Date (month): Jun; Count of Records: 3; Year: 2021" role="graphics-symbol" aria-roledescription="point" transform="translate(294.84452736318406,150)" d="M2.739,0A2.739,2.739,0,1,1,-2.739,0A2.739,2.739,0,1,1,2.739,0" fill="#1f77b4" stroke-width="2" opacity="1"/><path aria-label="Intake Date (month): Apr; Count of Records: 1; Year: 2022" role="graphics-symbol" aria-roledescription="point" transform="translate(176.4863184079602,250)" d="M2.739,0A2.739,2.739,0,1,1,-2.739,0A2.739,2.739,0,1,1,2.739,0" fill="#ff7f0e" stroke-width="2" opacity="1"/><path aria-label="Intake Date (month): Mar; Count of Records: 3; Year: 2024" role="graphics-symbol" aria-roledescription="point" transform="translate(116.41791044776119,150)" d="M2.739,0A2.739,2.739,0,1,1,-2.739,0A2.739,2.739,0,1,1,2.739,0" fill="#d62728" stroke-width="2" opacity="1"/><path aria-label="Intake Date (month): May; Count of Records: 4; Year: 2023" role="graphics-symbol" aria-roledescription="point" transform="translate(234.6952736318408,100.00000000000001)" d="M2.739,0A2.739,2.739,0,1,1,-2.739,0A2.739,2.739,0,1,1,2.739,0" fill="#2ca02c" stroke-width="2" opacity="1"/><path aria-label="Intake Date (month): Aug; Count of Records: 2; Year: 2024" role="graphics-symbol" aria-roledescription="point" transform="translate(413.202736318408,200.00000000000003)" d="M2.739,0A2.739,2.739,0,1,1,-2.739,0A2.739,2.739,0,1,1,2.739,0" fill="#d62728" stroke-width="2" opacity="1"/><path aria-label="Intake Date (month): Nov; Count of Records: 2; Year: 2021" role="graphics-symbol" aria-roledescription="point" transform="translate(591.7101990049752,200.00000000000003)" d="M2.739,0A2.739,2.739,0,1,1,-2.739,0A2.739,2.739,0,1,1,2.739,0" fill="#1f77b4" stroke-width="2" opacity="1"/><path aria-label="Intake Date (month): May; Count of Records: 1; Year: 2022" role="graphics-symbol" aria-roledescription="point" transform="translate(234.6952736318408,250)" d="M2.739,0A2.739,2.739,0,1,1,-2.739,0A2.739,2.739,0,1,1,2.739,0" fill="#ff7f0e" stroke-width="2" opacity="1"/><path aria-label="Intake Date (month): Apr; Count of Records: 5; Year: 2024" role="graphics-symbol" aria-roledescription="point" transform="translate(176.4863184079602,49.999999999999986)" d="M2.739,0A2.739,2.739,0,1,1,-2.739,0A2.739,2.739,0,1,1,2.739,0" fill="#d62728" stroke-width="2" opacity="1"/><path aria-label="Intake Date (month): Sep; Count of Records: 2; Year: 2023" role="graphics-symbol" aria-roledescription="point" transform="translate(473.35199004975124,200.00000000000003)" d="M2.739,0A2.739,2.739,0,1,1,-2.739,0A2.739,2.739,0,1,1,2.739,0" fill="#2ca02c" stroke-width="2" opacity="1"/><path aria-label="Intake Date (month): Sep; Count of Records: 5; Year: 2022" role="graphics-symbol" aria-roledescription="point" transform="translate(473.35199004975124,49.999999999999986)" d="M2.739,0A2.739,2.739,0,1,1,-2.739,0A2.739,2.739,0,1,1,2.739,0" fill="#ff7f0e" stroke-width="2" opacity="1"/><path aria-label="Intake Date (month): Oct; Count of Records: 3; Year: 2023" role="graphics-symbol" aria-roledescription="point" transform="translate(531.5609452736318,150)" d="M2.739,0A2.739,2.739,0,1,1,-2.739,0A2.739,2.739,0,1,1,2.739,0" fill="#2ca02c" stroke-width="2" opacity="1"/><path aria-label="Intake Date (month): Jun; Count of Records: 1; Year: 2022" role="graphics-symbol" aria-roledescription="point" transform="translate(294.84452736318406,250)" d="M2.739,0A2.739,2.739,0,1,1,-2.739,0A2.739,2.739,0,1,1,2.739,0" fill="#ff7f0e" stroke-width="2" opacity="1"/><path aria-label="Intake Date (month): Jun; Count of Records: 2; Year: 2023" role="graphics-symbol" aria-roledescription="point" transform="translate(294.84452736318406,200.00000000000003)" d="M2.739,0A2.739,2.739,0,1,1,-2.739,0A2.739,2.739,0,1,1,2.739,0" fill="#2ca02c" stroke-width="2" opacity="1"/><path aria-label="Intake Date (month): Sep; Count of Records: 1; Year: 2024" role="graphics-symbol" aria-roledescription="point" transform="translate(473.35199004975124,250)" d="M2.739,0A2.739,2.739,0,1,1,-2.739,0A2.739,2.739,0,1,1,2.739,0" fill="#d62728" stroke-width="2" opacity="1"/><path aria-label="Intake Date (month): Oct; Count of Records: 4; Year: 2024" role="graphics-symbol" aria-roledescription="point" transform="translate(531.5609452736318,100.00000000000001)" d="M2.739,0A2.739,2.739,0,1,1,-2.739,0A2.739,2.739,0,1,1,2.739,0" fill="#d62728" stroke-width="2" opacity="1"/><path aria-label="Intake Date (month): Dec; Count of Records: 4; Year: 2021" role="graphics-symbol" aria-roledescription="point" transform="translate(650,100.00000000000001)" d="M2.739,0A2.739,2.739,0,1,1,-2.739,0A2.739,2.739,0,1,1,2.739,0" fill="#1f77b4" stroke-width="2" opacity="1"/><path aria-label="Intake Date (month): Nov; Count of Records: 2; Year: 2023" role="graphics-symbol" aria-roledescription="point" transform="translate(591.7101990049752,200.00000000000003)" d="M2.739,0A2.739,2.739,0,1,1,-2.739,0A2.739,2.739,0,1,1,2.739,0" fill="#2ca02c" stroke-width="2" opacity="1"/><path aria-label="Intake Date (month): Oct; Count of Records: 1; Year: 2022" role="graphics-symbol" aria-roledescription="point" transform="translate(531.5609452736318,250)" d="M2.739,0A2.739,2.739,0,1,1,-2.739,0A2.739,2.739,0,1,1,2.739,0" fill="#ff7f0e" stroke-width="2" opacity="1"/><path aria-label="Intake Date (month): Nov; Count of Records: 3; Year: 2022" role="graphics-symbol" aria-roledescription="point" transform="translate(591.7101990049752,150)" d="M2.739,0A2.739,2.739,0,1,1,-2.739,0A2.739,2.739,0,1,1,2.739,0" fill="#ff7f0e" stroke-width="2" opacity="1"/><path aria-label="Intake Date (month): Dec; Count of Records: 2; Year: 2022" role="graphics-symbol" aria-roledescription="point" transform="translate(650,200.00000000000003)" d="M2.739,0A2.739,2.739,0,1,1,-2.739,0A2.739,2.739,0,1,1,2.739,0" fill="#ff7f0e" stroke-width="2" opacity="1"/><path aria-label="Intake Date (month): Dec; Count of Records: 3; Year: 2024" role="graphics-symbol" aria-roledescription="point" transform="translate(650,150)" d="M2.739,0A2.739,2.739,0,1,1,-2.739,0A2.739,2.739,0,1,1,2.739,0" fill="#d62728" stroke-width="2" opacity="1"/><path aria-label="Intake Date (month): Jan; Count of Records: 1; Year: 2025" role="graphics-symbol" aria-roledescription="point" transform="translate(0,250)" d="M2.739,0A2.739,2.739,0,1,1,-2.739,0A2.739,2.739,0,1,1,2.739,0" fill="#9467bd" stroke-width="2" opacity="1"/><path aria-label="Intake Date (month): Feb; Count of Records: 2; Year: 2025" role="graphics-symbol" aria-roledescription="point" transform="translate(60.14925373134328,200.00000000000003)" d="M2.739,0A2.739,2.739,0,1,1,-2.739,0A2.739,2.739,0,1,1,2.739,0" fill="#9467bd" stroke-width="2" opacity="1"/><path aria-label="Intake Date (month): Mar; Count of Records: 1; Year: 2025" role="graphics-symbol" aria-roledescription="point" transform="translate(116.41791044776119,250)" d="M2.739,0A2.739,2.739,0,1,1,-2.739,0A2.739,2.739,0,1,1,2.739,0" fill="#9467bd" stroke-width="2" opacity="1"/><path aria-label="Intake Date (month): Apr; Count of Records: 1; Year: 2025" role="graphics-symbol" aria-roledescription="point" transform="translate(176.4863184079602,250)" d="M2.739,0A2.739,2.739,0,1,1,-2.739,0A2.739,2.739,0,1,1,2.739,0" fill="#9467bd" stroke-width="2" opacity="1"/><path aria-label="Intake Date (month): May; Count of Records: 6; Year: 2025" role="graphics-symbol" aria-roledescription="point" transform="translate(234.6952736318408,0)" d="M2.739,0A2.739,2.739,0,1,1,-2.739,0A2.739,2.739,0,1,1,2.739,0" fill="#9467bd" stroke-width="2" opacity="1"/><path aria-label="Intake Date (month): Jun; Count of Records: 3; Year: 2025" role="graphics-symbol" aria-roledescription="point" transform="translate(294.84452736318406,150)" d="M2.739,0A2.739,2.739,0,1,1,-2.739,0A2.739,2.739,0,1,1,2.739,0" fill="#9467bd" stroke-width="2" opacity="1"/><path aria-label="Intake Date (month): Jul; Count of Records: 3; Year: 2025" role="graphics-symbol" aria-roledescription="point" transform="translate(353.0534825870647,150)" d="M2.739,0A2.739,2.739,0,1,1,-2.739,0A2.739,2.739,0,1,1,2.739,0" fill="#9467bd" stroke-width="2" opacity="1"/><path aria-label="Intake Date (month): Aug; Count of Records: 2; Year: 2025" role="graphics-symbol" aria-roledescription="point" transform="translate(413.202736318408,200.00000000000003)" d="M2.739,0A2.739,2.739,0,1,1,-2.739,0A2.739,2.739,0,1,1,2.739,0" fill="#9467bd" stroke-width="2" opacity="1"/><path aria-label="Intake Date (month): Sep; Count of Records: 1; Year: 2025" role="graphics-symbol" aria-roledescription="point" transform="translate(473.35199004975124,250)" d="M2.739,0A2.739,2.739,0,1,1,-2.739,0A2.739,2.739,0,1,1,2.739,0" fill="#9467bd" stroke-width="2" opacity="1"/></g><g class="mark-group role-legend" role="graphics-symbol" aria-roledescription="legend" aria-label="Symbol legend titled 'Year' for fill color and stroke color with 5 values: 2021, 2022, 2023, 2024, 2025"><g transform="translate(670,0)"><path class="background" aria-hidden="true" d="M0,0h39v93h-39Z" pointer-events="none"/><g><g class="mark-group role-legend-entry"><g transform="translate(0,16)"><path class="background" aria-hidden="true" d="M0,0h0v0h0Z" pointer-events="none"/><g><g class="mark-group role-scope" role="graphics-object" aria-roledescription="group mark container"><g transform="translate(0,0)"><path class="background" aria-hidden="true" d="M0,0h38.24609375v12.5h-38.24609375Z" pointer-events="none" opacity="1"/><g><g class="mark-symbol role-legend-symbol" pointer-events="none"><path transform="translate(6,6)" d="M5,0A5,5,0,1,1,-5,0A5,5,0,1,1,5,0" fill="#1f77b4" stroke="#1f77b4" stroke-width="1.5" opacity="1"/></g><g class="mark-text role-legend-label" pointer-events="none"><text text-anchor="start" transform="translate(16,9)" font-family="sans-serif" font-size="10px" fill="#000" opacity="1">2021</text></g></g><path class="foreground" aria-hidden="true" d="" pointer-events="none" display="none"/></g><g transform="translate(0,16)"><path class="background" aria-hidden="true" d="M0,0h38.24609375v12.5h-38.24609375Z" pointer-events="none" opacity="1"/><g><g class="mark-symbol role-legend-symbol" pointer-events="none"><path transform="translate(6,6)" d="M5,0A5,5,0,1,1,-5,0A5,5,0,1,1,5,0" fill="#ff7f0e" stroke="#ff7f0e" stroke-width="1.5" opacity="1"/></g><g class="mark-text role-legend-label" pointer-events="none"><text text-anchor="start" transform="translate(16,9)" font-family="sans-serif" font-size="10px" fill="#000" opacity="1">2022</text></g></g><path class="foreground" aria-hidden="true" d="" pointer-events="none" display="none"/></g><g transform="translate(0,32)"><path class="background" aria-hidden="true" d="M0,0h38.24609375v12.5h-38.24609375Z" pointer-events="none" opacity="1"/><g><g class="mark-symbol role-legend-symbol" pointer-events="none"><path transform="translate(6,6)" d="M5,0A5,5,0,1,1,-5,0A5,5,0,1,1,5,0" fill="#2ca02c" stroke="#2ca02c" stroke-width="1.5" opacity="1"/></g><g class="mark-text role-legend-label" pointer-events="none"><text text-anchor="start" transform="translate(16,9)" font-family="sans-serif" font-size="10px" fill="#000" opacity="1">2023</text></g></g><path class="foreground" aria-hidden="true" d="" pointer-events="none" display="none"/></g><g transform="translate(0,48)"><path class="background" aria-hidden="true" d="M0,0h38.24609375v12.5h-38.24609375Z" pointer-events="none" opacity="1"/><g><g class="mark-symbol role-legend-symbol" pointer-events="none"><path transform="translate(6,6)" d="M5,0A5,5,0,1,1,-5,0A5,5,0,1,1,5,0" fill="#d62728" stroke="#d62728" stroke-width="1.5" opacity="1"/></g><g class="mark-text role-legend-label" pointer-events="none"><text text-anchor="start" transform="translate(16,9)" font-family="sans-serif" font-size="10px" fill="#000" opacity="1">2024</text></g></g><path class="foreground" aria-hidden="true" d="" pointer-events="none" display="none"/></g><g transform="translate(0,64)"><path class="background" aria-hidden="true" d="M0,0h38.24609375v12.5h-38.24609375Z" pointer-events="none" opacity="1"/><g><g class="mark-symbol role-legend-symbol" pointer-events="none"><path transform="translate(6,6)" d="M5,0A5,5,0,1,1,-5,0A5,5,0,1,1,5,0" fill="#9467bd" stroke="#9467bd" stroke-width="1.5" opacity="1"/></g><g class="mark-text role-legend-label" pointer-events="none"><text text-anchor="start" transform="translate(16,9)" font-family="sans-serif" font-size="10px" fill="#000" opacity="1">2025</text></g></g><path class="foreground" aria-hidden="true" d="" pointer-events="none" display="none"/></g></g></g><path class="foreground" aria-hidden="true" d="" pointer-events="none" display="none"/></g></g><g class="mark-text role-legend-title" pointer-events="none"><text text-anchor="start" transform="translate(0,9)" font-family="sans-serif" font-size="11px" font-weight="bold" fill="#000" opacity="1">Year</text></g></g><path class="foreground" aria-hidden="true" d="" pointer-events="none" display="none"/></g></g><g class="mark-group role-title"><g transform="translate(325,-22)"><path class="background" aria-hidden="true" d="M0,0h0v0h0Z" pointer-events="none"/><g><g class="mark-text role-title-text" role="graphics-symbol" aria-roledescription="title" aria-label="Title text 'Trends over time: year and intake date'" pointer-events="none"><text text-anchor="middle" transform="translate(0,10)" font-family="sans-serif" font-size="13px" font-weight="bold" fill="#000" opacity="1">Trends over time: year and intake date</text></g></g><path class="foreground" aria-hidden="true" d="" pointer-events="none" display="none"/></g></g></g><path class="foreground" aria-hidden="true" d="" display="none"/></g></g></g></svg>