<svg xmlns="http://www.w3.org/2000/svg" xmlns:xlink="http://www.w3.org/1999/xlink" version="1.1" class="marks" width="824" height="364" viewBox="0 0 824 364"><rect width="824" height="364" fill="white"/><g fill="none" stroke-miterlimit="10" transform="translate(44,27)"><g class="mark-group role-frame root" role="graphics-object" aria-roledescription="group mark container"><g transform="translate(0,0)"><path class="background" aria-hidden="true" d="M0.5,0.5h650v300h-650Z" stroke="#ddd"/><g><g class="mark-group role-axis" aria-hidden="true"><g transform="translate(0.5,300.5)"><path class="background" aria-hidden="true" d="M0,0h0v0h0Z" pointer-events="none"/><g><g class="mark-rule role-axis-grid" pointer-events="none"><line transform="translate(0,-300)" x2="0" y2="300" stroke="#ddd" stroke-width="1" opacity="1"/><line transform="translate(60,-300)" x2="0" y2="300" stroke="#ddd" stroke-width="1" opacity="1"/><line transform="translate(116,-300)" x2="0" y2="300" stroke="#ddd" stroke-width="1" opacity="1"/><line transform="translate(176,-300)" x2="0" y2="300" stroke="#ddd" stroke-width="1" opacity="1"/><line transform="translate(235,-300)" x2="0" y2="300" stroke="#ddd" stroke-width="1" opacity="1"/><line transform="translate(295,-300)" x2="0" y2="300" stroke="#ddd" stroke-width="1" opacity="1"/><line transform="translate(353,-300)" x2="0" y2="300" stroke="#ddd" stroke-width="1" opacity="1"/><line transform="translate(413,-300)" x2="0" y2="300" stroke="#ddd" stroke-width="1" opacity="1"/><line transform="translate(473,-300)" x2="0" y2="300" stroke="#ddd" stroke-width="1" opacity="1"/><line transform="translate(532,-300)" x2="0" y2="300" stroke="#ddd" stroke-width="1" opacity="1"/><line transform="translate(592,-300)" x2="0" y2="300" stroke="#ddd" stroke-width="1" opacity="1"/><line transform="translate(650,-300)" x2="0" y2="300" stroke="#ddd" stroke-width="1" opacity="1"/></g></g><path class="foreground" aria-hidden="true" d="" pointer-events="none" display="none"/></g></g><g class="mark-group role-axis" aria-hidden="true"><g transform="translate(0.5,0.5)"><path class="background" aria-hidden="true" d="M0,0h0v0h0Z" pointer-events="none"/><g><g class="mark-rule role-axis-grid" pointer-events="none"><line transform="translate(0,300)" x2="650" y2="0" stroke="#ddd" stroke-width="1" opacity="1"/><line transform="translate(0,257)" x2="650" y2="0" stroke="#ddd" stroke-width="1" opacity="1"/><line transform="translate(0,214)" x2="650" y2="0" stroke="#ddd" stroke-width="1" opacity="1"/><line transform="translate(0,171)" x2="650" y2="0" stroke="#ddd" stroke-width="1" opacity="1"/><line transform="translate(0,129)" x2="650" y2="0" stroke="#ddd" stroke-width="1" opacity="1"/><line transform="translate(0,86)" x2="650" y2="0" stroke="#ddd" stroke-width="1" opacity="1"/><line transform="translate(0,43)" x2="650" y2="0" stroke="#ddd" stroke-width="1" opacity="1"/><line transform="translate(0,0)" x2="650" y2="0" stroke="#ddd" stroke-width="1" opacity="1"/></g></g><path class="foreground" aria-hidden="true" d="" pointer-events="none" display="none"/></g></g><g class="mark-group role-axis" role="graphics-symbol" aria-roledescription="axis" aria-label="X-axis titled 'Outcome Date (month)' for a time scale with values from January to December"><g transform="translate(0.5,300.5)"><path class="background" aria-hidden="true" d="M0,0h0v0h0Z" pointer-events="none"/><g><g class="mark-rule role-axis-tick" pointer-events="none"><line transform="translate(0,0)" x2="0" y2="5" stroke="#888" stroke-width="1" opacity="1"/><line transform="translate(60,0)" x2="0" y2="5" stroke="#888" stroke-width="1" opacity="1"/><line transform="translate(116,0)" x2="0" y2="5" stroke="#888" stroke-width="1" opacity="1"/><line transform="translate(176,0)" x2="0" y2="5" stroke="#888" stroke-width="1" opacity="1"/><line transform="translate(235,0)" x2="0" y2="5" stroke="#888" stroke-width="1" opacity="1"/><line transform="translate(295,0)" x2="0" y2="5" stroke="#888" stroke-width="1" opacity="1"/><line transform="translate(353,0)" x2="0" y2="5" stroke="#888" stroke-width="1" opacity="1"/><line transform="translate(413,0)" x2="0" y2="5" stroke="#888" stroke-width="1" opacity="1"/><line transform="translate(473,0)" x2="0" y2="5" stroke="#888" stroke-width="1" opacity="1"/><line transform="translate(532,0)" x2="0" y2="5" stroke="#888" stroke-width="1" opacity="1"/><line transform="translate(592,0)" x2="0" y2="5" stroke="#888" stroke-width="1" opacity="1"/><line transform="translate(650,0)" x2="0" y2="5" stroke="#888" stroke-width="1" opacity="1"/></g><g class="mark-text role-axis-label" pointer-events="none"><text text-anchor="start" transform="translate(0,15)" font-family="sans-serif" font-size="10px" fill="#000" opacity="1">Jan</text><text text-anchor="middle" transform="translate(60.14925373134328,15)" font-family="sans-serif" font-size="10px" fill="#000" opacity="1">Feb</text><text text-anchor="middle" transform="translate(116.41791044776119,15)" font-family="sans-serif" font-size="10px" fill="#000" opacity="1">Mar</text><text text-anchor="middle" transform="translate(176.4863184079602,15)" font-family="sans-serif" font-size="10px" fill="#000" opacity="1">Apr</text><text text-anchor="middle" transform="translate(234.6952736318408,15)" font-family="sans-serif" font-size="10px" fill="#000" opacity="1">May</text><text text-anchor="middle" transform="translate(294.84452736318406,15)" font-family="sans-serif" font-size="10px" fill="#000" opacity="1">Jun</text><text text-anchor="middle" transform="translate(353.0534825870647,15)" font-family="sans-serif" font-size="10px" fill="#000" opacity="1">Jul</text><text text-anchor="middle" transform="translate(413.202736318408,15)" font-family="sans-serif" font-size="10px" fill="#000" opacity="1">Aug</text><text text-anchor="middle" transform="translate(473.35199004975124,15)" font-family="sans-serif" font-size="10px" fill="#000" opacity="1">Sep</text><text text-anchor="middle" transform="translate(531.5609452736318,15)" font-family="sans-serif" font-size="10px" fill="#000" opacity="1">Oct</text><text text-anchor="middle" transform="translate(591.7101990049752,15)" font-family="sans-serif" font-size="10px" fill="#000" opacity="1">Nov</text><text text-anchor="end" transform="translate(650,15)" font-family="sans-serif" font-size="10px" fill="#000" opacity="1">Dec</text></g><g class="mark-rule role-axis-domain" pointer-events="none"><line transform="translate(0,0)" x2="650" y2="0" stroke="#888" stroke-width="1" opacity="1"/></g><g class="mark-text role-axis-title" pointer-events="none"><text text-anchor="middle" transform="translate(325,30)" font-family="sans-serif" font-size="11px" font-weight="bold" fill="#000" opacity="1">Outcome Date (month)</text></g></g><path class="foreground" aria-hidden="true" d="" pointer-events="none" display="none"/></g></g><g class="mark-group role-axis" role="graphics-symbol" aria-roledescription="axis" aria-label="Y-axis titled 'Count of Records' for a linear scale with values from 0 to 350"><g transform="translate(0.5,0.5)"><path class="background" aria-hidden="true" d="M0,0h0v0h0Z" pointer-events="none"/><g><g class="mark-rule role-axis-tick" pointer-events="none"><line transform="translate(0,300)" x2="-5" y2="0" stroke="#888" stroke-width="1" opacity="1"/><line transform="translate(0,257)" x2="-5" y2="0" stroke="#888" stroke-width="1" opacity="1"/><line transform="translate(0,214)" x2="-5" y2="0" stroke="#888" stroke-width="1" opacity="1"/><line transform="translate(0,171)" x2="-5" y2="0" stroke="#888" stroke-width="1" opacity="1"/><line transform="translate(0,129)" x2="-5" y2="0" stroke="#888" stroke-width="1" opacity="1"/><line transform="translate(0,86)" x2="-5" y2="0" stroke="#888" stroke-width="1" opacity="1"/><line transform="translate(0,43)" x2="-5" y2="0" stroke="#888" stroke-width="1" opacity="1"/><line transform="translate(0,0)" x2="-5" y2="0" stroke="#888" stroke-width="1" opacity="1"/></g><g class="mark-text role-axis-label" pointer-events="none"><text text-anchor="end" transform="translate(-7,303)" font-family="sans-serif" font-size="10px" fill="#000" opacity="1">0</text><text text-anchor="end" transform="translate(-7,260.14285714285717)" font-family="sans-serif" font-size="10px" fill="#000" opacity="1">50</text><text text-anchor="end" transform="translate(-7,217.28571428571428)" font-family="sans-serif" font-size="10px" fill="#000" opacity="1">100</text><text text-anchor="end" transform="translate(-7,174.42857142857142)" font-family="sans-serif" font-size="10px" fill="#000" opacity="1">150</text><text text-anchor="end" transform="translate(-7,131.57142857142858)" font-family="sans-serif" font-size="10px" fill="#000" opacity="1">200</text><text text-anchor="end" transform="translate(-7,88.71428571428571)" font-family="sans-serif" font-size="10px" fill="#000" opacity="1">250</text><text text-anchor="end" transform="translate(-7,45.85714285714287)" font-family="sans-serif" font-size="10px" fill="#000" opacity="1">300</text><text text-anchor="end" transform="translate(-7,3)" font-family="sans-serif" font-size="10px" fill="#000" opacity="1">350</text></g><g class="mark-rule role-axis-domain" pointer-events="none"><line transform="translate(0,300)" x2="0" y2="-300" stroke="#888" stroke-width="1" opacity="1"/></g><g class="mark-text role-axis-title" pointer-events="none"><text text-anchor="middle" transform="translate(-27.6845703125,150) rotate(-90) translate(0,-2)" font-family="sans-serif" font-size="11px" font-weight="bold" fill="#000" opacity="1">Count of Records</text></g></g><path class="foreground" aria-hidden="true" d="" pointer-events="none" display="none"/></g></g><g class="mark-group role-scope layer_0_pathgroup" role="graphics-object" aria-roledescription="group mark container"><g transform="translate(0,0)"><path class="background" aria-hidden="true" d="M0,0h650v300h-650Z"/><g><g class="mark-line role-mark layer_0_marks" role="graphics-object" aria-roledescription="line mark container"><path aria-label="Outcome Date (month): Jan; Count of Records: 86; Age Group at Intake: Kitten" role="graphics-symbol" aria-roledescription="line mark" d="M0,226.286L60.149,264L116.418,257.143L176.486,243.429L234.695,222.857L294.845,158.571L353.053,93.429L413.203,39.429L473.352,89.143L531.561,95.143L591.71,145.714L650,145.714" stroke="#ff7f0e" stroke-width="2"/></g></g><path class="foreground" aria-hidden="true" d="" display="none"/></g><g transform="translate(0,0)"><path class="background" aria-hidden="true" d="M0,0h650v300h-650Z"/><g><g class="mark-line role-mark layer_0_marks" role="graphics-object" aria-roledescription="line mark container"><path aria-label="Outcome Date (month): Jan; Count of Records: 80; Age Group at Intake: Adult" role="graphics-symbol" aria-roledescription="line mark" d="M0,231.429L60.149,228.857L116.418,219.429L176.486,214.286L234.695,185.143L294.845,181.714L353.053,211.714L413.203,192.857L473.352,196.286L531.561,219.429L591.71,222.857L650,207.429" stroke="#1f77b4" stroke-width="2"/></g></g><path class="foreground" aria-hidden="true" d="" display="none"/></g><g transform="translate(0,0)"><path class="background" aria-hidden="true" d="M0,0h650v300h-650Z"/><g><g class="mark-line role-mark layer_0_marks" role="graphics-object" aria-roledescription="line mark container"><path aria-label="Outcome Date (month): Jan; Count of Records: 2; Age Group at Intake: Senior" role="graphics-symbol" aria-roledescription="line mark" d="M0,298.286L60.149,296.571L116.418,295.714L176.486,294.857L234.695,295.714L294.845,293.143L353.053,297.429L413.203,293.143L473.352,295.714L531.561,294.857L591.71,297.429L650,298.286" stroke="#2ca02c" stroke-width="2"/></g></g><path class="foreground" aria-hidden="true" d="" display="none"/></g></g><g class="mark-symbol role-mark layer_1_marks" role="graphics-object" aria-roledescription="symbol mark container"><path aria-label="Outcome Date (month): Aug; Count of Records: 304; Age Group at Intake: Kitten" role="graphics-symbol" aria-roledescription="point" transform="translate(413.202736318408,39.42857142857144)" d="M2.739,0A2.739,2.739,0,1,1,-2.739,0A2.739,2.739,0,1,1,2.739,0" fill="#ff7f0e" stroke-width="2" opacity="1"/><path aria-label="Outcome Date (month): Feb; Count of Records: 83; Age Group at Intake: Adult" role="graphics-symbol" aria-roledescription="point" transform="translate(60.14925373134328,228.85714285714286)" d="M2.739,0A2.739,2.739,0,1,1,-2.739,0A2.739,2.739,0,1,1,2.739,0" fill="#1f77b4" stroke-width="2" opacity="1"/><path aria-label="Outcome Date (month): Oct; Count of Records: 239; Age Group at Intake: Kitten" role="graphics-symbol" aria-roledescription="point" transform="translate(531.5609452736318,95.14285714285715)" d="M2.739,0A2.739,2.739,0,1,1,-2.739,0A2.739,2.739,0,1,1,2.739,0" fill="#ff7f0e" stroke-width="2" opacity="1"/><path aria-label="Outcome Date (month): Dec; Count of Records: 108; Age Group at Intake: Adult" role="graphics-symbol" aria-roledescription="point" transform="translate(650,207.42857142857144)" d="M2.739,0A2.739,2.739,0,1,1,-2.739,0A2.739,2.739,0,1,1,2.739,0" fill="#1f77b4" stroke-width="2" opacity="1"/><path aria-label="Outcome Date (month): Aug; Count of Records: 125; Age Group at Intake: Adult" role="graphics-symbol" aria-roledescription="point" transform="translate(413.202736318408,192.85714285714283)" d="M2.739,0A2.739,2.739,0,1,1,-2.739,0A2.739,2.739,0,1,1,2.739,0" fill="#1f77b4" stroke-width="2" opacity="1"/><path aria-label="Outcome Date (month): Dec; Count of Records: 180; Age Group at Intake: Kitten" role="graphics-symbol" aria-roledescription="point" transform="translate(650,145.71428571428572)" d="M2.739,0A2.739,2.739,0,1,1,-2.739,0A2.739,2.739,0,1,1,2.739,0" fill="#ff7f0e" stroke-width="2" opacity="1"/><path aria-label="Outcome Date (month): Sep; Count of Records: 246; Age Group at Intake: Kitten" role="graphics-symbol" aria-roledescription="point" transform="translate(473.35199004975124,89.14285714285714)" d="M2.739,0A2.739,2.739,0,1,1,-2.739,0A2.739,2.739,0,1,1,2.739,0" fill="#ff7f0e" stroke-width="2" opacity="1"/><path aria-label="Outcome Date (month): Nov; Count of Records: 180; Age Group at Intake: Kitten" role="graphics-symbol" aria-roledescription="point" transform="translate(591.7101990049752,145.71428571428572)" d="M2.739,0A2.739,2.739,0,1,1,-2.739,0A2.739,2.739,0,1,1,2.739,0" fill="#ff7f0e" stroke-width="2" opacity="1"/><path aria-label="Outcome Date (month): Jan; Count of Records: 80; Age Group at Intake: Adult" role="graphics-symbol" aria-roledescription="point" transform="translate(0,231.42857142857144)" d="M2.739,0A2.739,2.739,0,1,1,-2.739,0A2.739,2.739,0,1,1,2.739,0" fill="#1f77b4" stroke-width="2" opacity="1"/><path aria-label="Outcome Date (month): Jul; Count of Records: 103; Age Group at Intake: Adult" role="graphics-symbol" aria-roledescription="point" transform="translate(353.0534825870647,211.71428571428572)" d="M2.739,0A2.739,2.739,0,1,1,-2.739,0A2.739,2.739,0,1,1,2.739,0" fill="#1f77b4" stroke-width="2" opacity="1"/><path aria-label="Outcome Date (month): Nov; Count of Records: 90; Age Group at Intake: Adult" role="graphics-symbol" aria-roledescription="point" transform="translate(591.7101990049752,222.85714285714286)" d="M2.739,0A2.739,2.739,0,1,1,-2.739,0A2.739,2.739,0,1,1,2.739,0" fill="#1f77b4" stroke-width="2" opacity="1"/><path aria-label="Outcome Date (month): Apr; Count of Records: 100; Age Group at Intake: Adult" role="graphics-symbol" aria-roledescription="point" transform="translate(176.4863184079602,214.28571428571428)" d="M2.739,0A2.739,2.739,0,1,1,-2.739,0A2.739,2.739,0,1,1,2.739,0" fill="#1f77b4" stroke-width="2" opacity="1"/><path aria-label="Outcome Date (month): Jul; Count of Records: 241; Age Group at Intake: Kitten" role="graphics-symbol" aria-roledescription="point" transform="translate(353.0534825870647,93.42857142857142)" d="M2.739,0A2.739,2.739,0,1,1,-2.739,0A2.739,2.739,0,1,1,2.739,0" fill="#ff7f0e" stroke-width="2" opacity="1"/><path aria-label="Outcome Date (month): Jun; Count of Records: 165; Age Group at Intake: Kitten" role="graphics-symbol" aria-roledescription="point" transform="translate(294.84452736318406,158.57142857142858)" d="M2.739,0A2.739,2.739,0,1,1,-2.739,0A2.739,2.739,0,1,1,2.739,0" fill="#ff7f0e" stroke-width="2" opacity="1"/><path aria-label="Outcome Date (month): Jun; Count of Records: 138; Age Group at Intake: Adult" role="graphics-symbol" aria-roledescription="point" transform="translate(294.84452736318406,181.7142857142857)" d="M2.739,0A2.739,2.739,0,1,1,-2.739,0A2.739,2.739,0,1,1,2.739,0" fill="#1f77b4" stroke-width="2" opacity="1"/><path aria-label="Outcome Date (month): Mar; Count of Records: 94; Age Group at Intake: Adult" role="graphics-symbol" aria-roledescription="point" transform="translate(116.41791044776119,219.42857142857142)" d="M2.739,0A2.739,2.739,0,1,1,-2.739,0A2.739,2.739,0,1,1,2.739,0" fill="#1f77b4" stroke-width="2" opacity="1"/><path aria-label="Outcome Date (month): May; Count of Records: 134; Age Group at Intake: Adult" role="graphics-symbol" aria-roledescription="point" transform="translate(234.6952736318408,185.14285714285717)" d="M2.739,0A2.739,2.739,0,1,1,-2.739,0A2.739,2.739,0,1,1,2.739,0" fill="#1f77b4" stroke-width="2" opacity="1"/><path aria-label="Outcome Date (month): Oct; Count of Records: 94; Age Group at Intake: Adult" role="graphics-symbol" aria-roledescription="point" transform="translate(531.5609452736318,219.42857142857142)" d="M2.739,0A2.739,2.739,0,1,1,-2.739,0A2.739,2.739,0,1,1,2.739,0" fill="#1f77b4" stroke-width="2" opacity="1"/><path aria-label="Outcome Date (month): Apr; Count of Records: 66; Age Group at Intake: Kitten" role="graphics-symbol" aria-roledescription="point" transform="translate(176.4863184079602,243.42857142857142)" d="M2.739,0A2.739,2.739,0,1,1,-2.739,0A2.739,2.739,0,1,1,2.739,0" fill="#ff7f0e" stroke-width="2" opacity="1"/><path aria-label="Outcome Date (month): May; Count of Records: 90; Age Group at Intake: Kitten" role="graphics-symbol" aria-roledescription="point" transform="translate(234.6952736318408,222.85714285714286)" d="M2.739,0A2.739,2.739,0,1,1,-2.739,0A2.739,2.739,0,1,1,2.739,0" fill="#ff7f0e" stroke-width="2" opacity="1"/><path aria-label="Outcome Date (month): Jan; Count of Records: 86; Age Group at Intake: Kitten" role="graphics-symbol" aria-roledescription="point" transform="translate(0,226.28571428571428)" d="M2.739,0A2.739,2.739,0,1,1,-2.739,0A2.739,2.739,0,1,1,2.739,0" fill="#ff7f0e" stroke-width="2" opacity="1"/><path aria-label="Outcome Date (month): Sep; Count of Records: 5; Age Group at Intake: Senior" role="graphics-symbol" aria-roledescription="point" transform="translate(473.35199004975124,295.7142857142857)" d="M2.739,0A2.739,2.739,0,1,1,-2.739,0A2.739,2.739,0,1,1,2.739,0" fill="#2ca02c" stroke-width="2" opacity="1"/><path aria-label="Outcome Date (month): Apr; Count of Records: 6; Age Group at Intake: Senior" role="graphics-symbol" aria-roledescription="point" transform="translate(176.4863184079602,294.8571428571429)" d="M2.739,0A2.739,2.739,0,1,1,-2.739,0A2.739,2.739,0,1,1,2.739,0" fill="#2ca02c" stroke-width="2" opacity="1"/><path aria-label="Outcome Date (month): Feb; Count of Records: 42; Age Group at Intake: Kitten" role="graphics-symbol" aria-roledescription="point" transform="translate(60.14925373134328,264)" d="M2.739,0A2.739,2.739,0,1,1,-2.739,0A2.739,2.739,0,1,1,2.739,0" fill="#ff7f0e" stroke-width="2" opacity="1"/><path aria-label="Outcome Date (month): Jul; Count of Records: 3; Age Group at Intake: Senior" role="graphics-symbol" aria-roledescription="point" transform="translate(353.0534825870647,297.42857142857144)" d="M2.739,0A2.739,2.739,0,1,1,-2.739,0A2.739,2.739,0,1,1,2.739,0" fill="#2ca02c" stroke-width="2" opacity="1"/><path aria-label="Outcome Date (month): Sep; Count of Records: 121; Age Group at Intake: Adult" role="graphics-symbol" aria-roledescription="point" transform="translate(473.35199004975124,196.2857142857143)" d="M2.739,0A2.739,2.739,0,1,1,-2.739,0A2.739,2.739,0,1,1,2.739,0" fill="#1f77b4" stroke-width="2" opacity="1"/><path aria-label="Outcome Date (month): Feb; Count of Records: 4; Age Group at Intake: Senior" role="graphics-symbol" aria-roledescription="point" transform="translate(60.14925373134328,296.57142857142856)" d="M2.739,0A2.739,2.739,0,1,1,-2.739,0A2.739,2.739,0,1,1,2.739,0" fill="#2ca02c" stroke-width="2" opacity="1"/><path aria-label="Outcome Date (month): Mar; Count of Records: 50; Age Group at Intake: Kitten" role="graphics-symbol" aria-roledescription="point" transform="translate(116.41791044776119,257.14285714285717)" d="M2.739,0A2.739,2.739,0,1,1,-2.739,0A2.739,2.739,0,1,1,2.739,0" fill="#ff7f0e" stroke-width="2" opacity="1"/><path aria-label="Outcome Date (month): Jun; Count of Records: 8; Age Group at Intake: Senior" role="graphics-symbol" aria-roledescription="point" transform="translate(294.84452736318406,293.1428571428571)" d="M2.739,0A2.739,2.739,0,1,1,-2.739,0A2.739,2.739,0,1,1,2.739,0" fill="#2ca02c" stroke-width="2" opacity="1"/><path aria-label="Outcome Date (month): Jan; Count of Records: 2; Age Group at Intake: Senior" role="graphics-symbol" aria-roledescription="point" transform="translate(0,298.2857142857143)" d="M2.739,0A2.739,2.739,0,1,1,-2.739,0A2.739,2.739,0,1,1,2.739,0" fill="#2ca02c" stroke-width="2" opacity="1"/><path aria-label="Outcome Date (month): Aug; Count of Records: 8; Age Group at Intake: Senior" role="graphics-symbol" aria-roledescription="point" transform="translate(413.202736318408,293.1428571428571)" d="M2.739,0A2.739,2.739,0,1,1,-2.739,0A2.739,2.739,0,1,1,2.739,0" fill="#2ca02c" stroke-width="2" opacity="1"/><path aria-label="Outcome Date (month): Oct; Count of Records: 6; Age Group at Intake: Senior" role="graphics-symbol" aria-roledescription="point" transform="translate(531.5609452736318,294.8571428571429)" d="M2.739,0A2.739,2.739,0,1,1,-2.739,0A2.739,2.739,0,1,1,2.739,0" fill="#2ca02c" stroke-width="2" opacity="1"/><path aria-label="Outcome Date (month): May; Count of Records: 5; Age Group at Intake: Senior" role="graphics-symbol" aria-roledescription="point" transform="translate(234.6952736318408,295.7142857142857)" d="M2.739,0A2.739,2.739,0,1,1,-2.739,0A2.739,2.739,0,1,1,2.739,0" fill="#2ca02c" stroke-width="2" opacity="1"/><path aria-label="Outcome Date (month): Mar; Count of Records: 5; Age Group at Intake: Senior" role="graphics-symbol" aria-roledescription="point" transform="translate(116.41791044776119,295.7142857142857)" d="M2.739,0A2.739,2.739,0,1,1,-2.739,0A2.739,2.739,0,1,1,2.739,0" fill="#2ca02c" stroke-width="2" opacity="1"/><path aria-label="Outcome Date (month): Nov; Count of Records: 3; Age Group at Intake: Senior" role="graphics-symbol" aria-roledescription="point" transform="translate(591.7101990049752,297.42857142857144)" d="M2.739,0A2.739,2.739,0,1,1,-2.739,0A2.739,2.739,0,1,1,2.739,0" fill="#2ca02c" stroke-width="2" opacity="1"/><path aria-label="Outcome Date (month): Dec; Count of Records: 2; Age Group at Intake: Senior" role="graphics-symbol" aria-roledescription="point" transform="translate(650,298.2857142857143)" d="M2.739,0A2.739,2.739,0,1,1,-2.739,0A2.739,2.739,0,1,1,2.739,0" fill="#2ca02c" stroke-width="2" opacity="1"/></g><g class="mark-group role-legend" role="graphics-symbol" aria-roledescription="legend" aria-label="Symbol legend titled 'Age Group at Intake' for fill color and stroke color with 3 values: Adult, Kitten, Senior"><g transform="translate(670,0)"><path class="background" aria-hidden="true" d="M0,0h105v61h-105Z" pointer-events="none"/><g><g class="mark-group role-legend-entry"><g transform="translate(0,16)"><path class="background" aria-hidden="true" d="M0,0h0v0h0Z" pointer-events="none"/><g><g class="mark-group role-scope" role="graphics-object" aria-roledescription="group mark container"><g transform="translate(0,0)"><path class="background" aria-hidden="true" d="M0,0h44.90625v12.5h-44.90625Z" pointer-events="none" opacity="1"/><g><g class="mark-symbol role-legend-symbol" pointer-events="none"><path transform="translate(6,6)" d="M5,0A5,5,0,1,1,-5,0A5,5,0,1,1,5,0" fill="#1f77b4" stroke="#1f77b4" stroke-width="1.5" opacity="1"/></g><g class="mark-text role-legend-label" pointer-events="none"><text text-anchor="start" transform="translate(16,9)" font-family="sans-serif" font-size="10px" fill="#000" opacity="1">Adult</text></g></g><path class="foreground" aria-hidden="true" d="" pointer-events="none" display="none"/></g><g transform="translate(0,16)"><path class="background" aria-hidden="true" d="M0,0h44.90625v12.5h-44.90625Z" pointer-events="none" opacity="1"/><g><g class="mark-symbol role-legend-symbol" pointer-events="none"><path transform="translate(6,6)" d="M5,0A5,5,0,1,1,-5,0A5,5,0,1,1,5,0" fill="#ff7f0e" stroke="#ff7f0e" stroke-width="1.5" opacity="1"/></g><g class="mark-text role-legend-label" pointer-events="none"><text text-anchor="start" transform="translate(16,9)" font-family="sans-serif" font-size="10px" fill="#000" opacity="1">Kitten</text></g></g><path class="foreground" aria-hidden="true" d="" pointer-events="none" display="none"/></g><g transform="translate(0,32)"><path class="background" aria-hidden="true" d="M0,0h44.90625v12.5h-44.90625Z" pointer-events="none" opacity="1"/><g><g class="mark-symbol role-legend-symbol" pointer-events="none"><path transform="translate(6,6)" d="M5,0A5,5,0,1,1,-5,0A5,5,0,1,1,5,0" fill="#2ca02c" stroke="#2ca02c" stroke-width="1.5" opacity="1"/></g><g class="mark-text role-legend-label" pointer-events="none"><text text-anchor="start" transform="translate(16,9)" font-family="sans-serif" font-size="10px" fill="#000" opacity="1">Senior</text></g></g><path class="foreground" aria-hidden="true" d="" pointer-events="none" display="none"/></g></g></g><path class="foreground" aria-hidden="true" d="" pointer-events="none" display="none"/></g></g><g class="mark-text role-legend-title" pointer-events="none"><text text-anchor="start" transform="translate(0,9)" font-family="sans-serif" font-size="11px" font-weight="bold" fill="#000" opacity="1">Age Group at Intake</text></g></g><path class="foreground" aria-hidden="true" d="" pointer-events="none" display="none"/></g></g><g class="mark-group role-title"><g transform="translate(325,-22)"><path class="background" aria-hidden="true" d="M0,0h0v0h0Z" pointer-events="none"/><g><g class="mark-text role-title-text" role="graphics-symbol" aria-roledescription="title" aria-label="Title text 'Trends over time: age group at intake and outcome date'" pointer-events="none"><text text-anchor="middle" transform="translate(0,10)" font-family="sans-serif" font-size="13px" font-weight="bold" fill="#000" opacity="1">Trends over time: age group at intake and outcome date</text></g></g><path class="foreground" aria-hidden="true" d="" pointer-events="none" display="none"/></g></g></g><path class="foreground" aria-hidden="true" d="" display="none"/></g></g></g></svg>