<svg xmlns="http://www.w3.org/2000/svg" xmlns:xlink="http://www.w3.org/1999/xlink" version="1.1" class="marks" width="463" height="427" viewBox="0 0 463 427"><rect width="463" height="427" fill="white"/><g fill="none" stroke-miterlimit="10" transform="translate(5,22)"><g class="mark-group role-frame root" role="graphics-object" aria-roledescription="group mark container"><g transform="translate(0,0)"><path class="background" aria-hidden="true" d="M0,0h300v400h-300Z"/><g><g class="mark-arc role-mark layer_0_marks" role="graphics-object" aria-roledescription="arc mark container"><path aria-label="Count of Records: 149; Intake Type: Born in Care" role="graphics-symbol" aria-roledescription="arc mark" transform="translate(150,200)" d="M70.324,-132.494A150,150,0,0,0,30.864,-146.79L0,0Z" fill="#aec7e8"/><path aria-label="Count of Records: 1983; Intake Type: Stray In" role="graphics-symbol" aria-roledescription="arc mark" transform="translate(150,200)" d="M-111.912,-99.879A150,150,0,1,0,148.651,20.075L0,0Z" fill="#ffbb78"/><path aria-label="Count of Records: 646; Intake Type: Owner Surrender" role="graphics-symbol" aria-roledescription="arc mark" transform="translate(150,200)" d="M148.651,20.075A150,150,0,0,0,70.324,-132.494L0,0Z" fill="#ff7f0e"/><path aria-label="Count of Records: 447; Intake Type: Transfer In" role="graphics-symbol" aria-roledescription="arc mark" transform="translate(150,200)" d="M0,-150A150,150,0,0,0,-111.912,-99.879L0,0Z" fill="#2ca02c"/><path aria-label="Count of Records: 110; Intake Type: Adoption Return" role="graphics-symbol" aria-roledescription="arc mark" transform="translate(150,200)" d="M30.864,-146.79A150,150,0,0,0,0,-150L0,0Z" fill="#1f77b4"/></g><g class="mark-text role-mark layer_1_marks" role="graphics-object" aria-roledescription="text mark container"><text aria-label="Count of Records: 149; Intake Type: Born in Care" role="graphics-symbol" aria-roledescription="text mark" text-anchor="middle" transform="translate(206.2060626221496,49.86818983678751)" font-family="sans-serif" font-size="15px" fill="#aec7e8">149</text><text aria-label="Count of Records: 1983; Intake Type: Stray In" role="graphics-symbol" aria-roledescription="text mark" text-anchor="middle" transform="translate(81.00055196293103,354.8802060666445)" font-family="sans-serif" font-size="15px" fill="#ffbb78">1983</text><text aria-label="Count of Records: 646; Intake Type: Owner Surrender" role="graphics-symbol" aria-roledescription="text mark" text-anchor="middle" transform="translate(296.7860540454392,129.64182633735464)" font-family="sans-serif" font-size="15px" fill="#ff7f0e">646</text><text aria-label="Count of Records: 447; Intake Type: Transfer In" role="graphics-symbol" aria-roledescription="text mark" text-anchor="middle" transform="translate(82.55729835612098,54.41287573310021)" font-family="sans-serif" font-size="15px" fill="#2ca02c">447</text><text aria-label="Count of Records: 110; Intake Type: Adoption Return" role="graphics-symbol" aria-roledescription="text mark" text-anchor="middle" transform="translate(167.0668431314022,40.88503156162719)" font-family="sans-serif" font-size="15px" fill="#1f77b4">110</text></g><g class="mark-group role-legend" role="graphics-symbol" aria-roledescription="legend" aria-label="Symbol legend titled 'Intake Type' for fill color with 5 values: Adoption Return, Born in Care, Owner Surrender, Stray In, Transfer In"><g transform="translate(360,0)"><path class="background" aria-hidden="true" d="M0,0h93v79h-93Z" pointer-events="none"/><g><g class="mark-group role-legend-entry"><g transform="translate(0,16)"><path class="background" aria-hidden="true" d="M0,0h0v0h0Z" pointer-events="none"/><g><g class="mark-group role-scope" role="graphics-object" aria-roledescription="group mark container"><g transform="translate(0,0)"><path class="background" aria-hidden="true" d="M0,0h92.69921875v11h-92.69921875Z" pointer-events="none" opacity="1"/><g><g class="mark-symbol role-legend-symbol" pointer-events="none"><path transform="translate(6,6)" d="M5,0A5,5,0,1,1,-5,0A5,5,0,1,1,5,0" fill="#1f77b4" stroke-width="1.5" opacity="1"/></g><g class="mark-text role-legend-label" pointer-events="none"><text text-anchor="start" transform="translate(16,9)" font-family="sans-serif" font-size="10px" fill="#000" opacity="1">Adoption Return</text></g></g><path class="foreground" aria-hidden="true" d="" pointer-events="none" display="none"/></g><g transform="translate(0,13)"><path class="background" aria-hidden="true" d="M0,0h92.69921875v11h-92.69921875Z" pointer-events="none" opacity="1"/><g><g class="mark-symbol role-legend-symbol" pointer-events="none"><path transform="translate(6,6)" d="M5,0A5,5,0,1,1,-5,0A5,5,0,1,1,5,0" fill="#aec7e8" stroke-width="1.5" opacity="1"/></g><g class="mark-text role-legend-label" pointer-events="none"><text text-anchor="start" transform="translate(16,9)" font-family="sans-serif" font-size="10px" fill="#000" opacity="1">Born in Care</text></g></g><path class="foreground" aria-hidden="true" d="" pointer-events="none" display="none"/></g><g transform="translate(0,26)"><path class="background" aria-hidden="true" d="M0,0h92.69921875v11h-92.69921875Z" pointer-events="none" opacity="1"/><g><g class="mark-symbol role-legend-symbol" pointer-events="none"><path transform="translate(6,6)" d="M5,0A5,5,0,1,1,-5,0A5,5,0,1,1,5,0" fill="#ff7f0e" stroke-width="1.5" opacity="1"/></g><g class="mark-text role-legend-label" pointer-events="none"><text text-anchor="start" transform="translate(16,9)" font-family="sans-serif" font-size="10px" fill="#000" opacity="1">Owner Surrender</text></g></g><path class="foreground" aria-hidden="true" d="" pointer-events="none" display="none"/></g><g transform="translate(0,39)"><path class="background" aria-hidden="true" d="M0,0h92.69921875v11h-92.69921875Z" pointer-events="none" opacity="1"/><g><g class="mark-symbol role-legend-symbol" pointer-events="none"><path transform="translate(6,6)" d="M5,0A5,5,0,1,1,-5,0A5,5,0,1,1,5,0" fill="#ffbb78" stroke-width="1.5" opacity="1"/></g><g class="mark-text role-legend-label" pointer-events="none"><text text-anchor="start" transform="translate(16,9)" font-family="sans-serif" font-size="10px" fill="#000" opacity="1">Stray In</text></g></g><path class="foreground" aria-hidden="true" d="" pointer-events="none" display="none"/></g><g transform="translate(0,52)"><path class="background" aria-hidden="true" d="M0,0h92.69921875v11h-92.69921875Z" pointer-events="none" opacity="1"/><g><g class="mark-symbol role-legend-symbol" pointer-events="none"><path transform="translate(6,6)" d="M5,0A5,5,0,1,1,-5,0A5,5,0,1,1,5,0" fill="#2ca02c" stroke-width="1.5" opacity="1"/></g><g class="mark-text role-legend-label" pointer-events="none"><text text-anchor="start" transform="translate(16,9)" font-family="sans-serif" font-size="10px" fill="#000" opacity="1">Transfer In</text></g></g><path class="foreground" aria-hidden="true" d="" pointer-events="none" display="none"/></g></g></g><path class="foreground" aria-hidden="true" d="" pointer-events="none" display="none"/></g></g><g class="mark-text role-legend-title" pointer-events="none"><text text-anchor="start" transform="translate(0,9)" font-family="sans-serif" font-size="11px" font-weight="bold" fill="#000" opacity="1">Intake Type</text></g></g><path class="foreground" aria-hidden="true" d="" pointer-events="none" display="none"/></g></g><g class="mark-group role-title"><g transform="translate(150,-17)"><path class="background" aria-hidden="true" d="M0,0h0v0h0Z" pointer-events="none"/><g><g class="mark-text role-title-text" role="graphics-symbol" aria-roledescription="title" aria-label="Title text 'Cats by Intake Type'" pointer-events="none"><text text-anchor="middle" transform="translate(0,10)" font-family="sans-serif" font-size="13px" font-weight="bold" fill="#000" opacity="1">Cats by Intake Type</text></g></g><path class="foreground" aria-hidden="true" d="" pointer-events="none" display="none"/></g></g></g><path class="foreground" aria-hidden="true" d="" display="none"/></g></g></g></svg>