<svg xmlns="http://www.w3.org/2000/svg" xmlns:xlink="http://www.w3.org/1999/xlink" version="1.1" class="marks" width="866" height="351" viewBox="0 0 866 351"><rect width="866" height="351" fill="white"/><g fill="none" stroke-miterlimit="10" transform="translate(5,46)"><g class="mark-group role-frame root" role="graphics-object" aria-roledescription="group mark container"><g transform="translate(0,0)"><path class="background" aria-hidden="true" d="M0,0h0v0h0Z"/><g><g class="mark-group role-column-title facet-title" role="graphics-object" aria-roledescription="group mark container"><g transform="translate(310,-20)"><path class="background" aria-hidden="true" d="M0,0h0v0h0Z"/><g><g class="mark-group role-title"><g transform="translate(0,-21)"><path class="background" aria-hidden="true" d="M0,0h0v0h0Z" pointer-events="none"/><g><g class="mark-text role-title-text" role="graphics-symbol" aria-roledescription="title" aria-label="Title text 'Intake Type'" pointer-events="none"><text text-anchor="middle" transform="translate(0,9)" font-family="sans-serif" font-size="11px" font-weight="bold" fill="#000" opacity="1">Intake Type</text></g></g><path class="foreground" aria-hidden="true" d="" pointer-events="none" display="none"/></g></g></g><path class="foreground" aria-hidden="true" d="" display="none"/></g></g><g class="mark-group role-scope cell" role="graphics-object" aria-roledescription="group mark container"><g transform="translate(0,0)"><path class="background" aria-hidden="true" d="M0,0h300v300h-300Z"/><g><g class="mark-arc role-mark child_marks" role="graphics-object" aria-roledescription="arc mark container"><path aria-label="Count of Records: 63; Intake Sub-type: Unrealistic expectations" role="graphics-symbol" aria-roledescription="arc mark" transform="translate(150,150)" d="M0,-150A150,150,0,1,0,66.183,134.61L0,0Z" fill="#c7c7c7"/><path aria-label="Count of Records: 7; Intake Sub-type: Allergies in family" role="graphics-symbol" aria-roledescription="arc mark" transform="translate(150,150)" d="M94.952,-116.121A150,150,0,0,0,42.26,-143.924L0,0Z" fill="#ffbb78"/><path aria-label="Count of Records: 6; Intake Sub-type: Cannot afford/handle medical issues" role="graphics-symbol" aria-roledescription="arc mark" transform="translate(150,150)" d="M142.658,-46.353A150,150,0,0,0,118.785,-91.597L0,0Z" fill="#d62728"/><path aria-label="Count of Records: 1; Intake Sub-type: Cannot afford basic care (food - vaccines - etc)" role="graphics-symbol" aria-roledescription="arc mark" transform="translate(150,150)" d="M118.785,-91.597A150,150,0,0,0,113.362,-98.229L0,0Z" fill="#98df8a"/><path aria-label="Count of Records: 4; Intake Sub-type: Not good with kids at home" role="graphics-symbol" aria-roledescription="arc mark" transform="translate(150,150)" d="M145.072,38.133A150,150,0,0,0,149.939,4.283L0,0Z" fill="#c49c94"/><path aria-label="Count of Records: 5; Intake Sub-type: Aggression" role="graphics-symbol" aria-roledescription="arc mark" transform="translate(150,150)" d="M42.26,-143.924A150,150,0,0,0,0,-150L0,0Z" fill="#ff7f0e"/><path aria-label="Count of Records: 10; Intake Sub-type: Not good with other pets at home" role="graphics-symbol" aria-roledescription="arc mark" transform="translate(150,150)" d="M101.426,110.511A150,150,0,0,0,145.072,38.133L0,0Z" fill="#e377c2"/><path aria-label="Count of Records: 5; Intake Sub-type: Owner medical" role="graphics-symbol" aria-roledescription="arc mark" transform="translate(150,150)" d="M66.183,134.61A150,150,0,0,0,101.426,110.511L0,0Z" fill="#f7b6d2"/><path aria-label="Count of Records: 3; Intake Sub-type: Behavior/temperament of resident pet" role="graphics-symbol" aria-roledescription="arc mark" transform="translate(150,150)" d="M113.362,-98.229A150,150,0,0,0,94.952,-116.121L0,0Z" fill="#2ca02c"/><path aria-label="Count of Records: 6; Intake Sub-type: Housesoiling" role="graphics-symbol" aria-roledescription="arc mark" transform="translate(150,150)" d="M149.939,4.283A150,150,0,0,0,142.658,-46.353L0,0Z" fill="#c5b0d5"/></g><g class="mark-group role-title"><g transform="translate(150,-20)"><path class="background" aria-hidden="true" d="M0,0h0v0h0Z" pointer-events="none"/><g><g class="mark-text role-title-text" role="graphics-symbol" aria-roledescription="title" aria-label="Title text 'Adoption Return'" pointer-events="none"><text text-anchor="middle" transform="translate(0,8)" font-family="sans-serif" font-size="10px" fill="#000" opacity="1">Adoption Return</text></g></g><path class="foreground" aria-hidden="true" d="" pointer-events="none" display="none"/></g></g></g><path class="foreground" aria-hidden="true" d="" display="none"/></g><g transform="translate(320,0)"><path class="background" aria-hidden="true" d="M0,0h300v300h-300Z"/><g><g class="mark-arc role-mark child_marks" role="graphics-object" aria-roledescription="arc mark container"><path aria-label="Count of Records: 87; Intake Sub-type: Moving/Landlord" role="graphics-symbol" aria-roledescription="arc mark" transform="translate(150,150)" d="M95.546,115.633A150,150,0,0,0,149.913,5.105L0,0Z" fill="#8c564b"/><path aria-label="Count of Records: 100; Intake Sub-type: Unwanted litter" role="graphics-symbol" aria-roledescription="arc mark" transform="translate(150,150)" d="M0,-150A150,150,0,0,0,-123.955,-84.469L0,0Z" fill="#bcbd22"/><path aria-label="Count of Records: 17; Intake Sub-type: Not good with other pets at home" role="graphics-symbol" aria-roledescription="arc mark" transform="translate(150,150)" d="M59.586,137.657A150,150,0,0,0,81.431,125.972L0,0Z" fill="#e377c2"/><path aria-label="Count of Records: 33; Intake Sub-type: Cannot afford/handle medical issues" role="graphics-symbol" aria-roledescription="arc mark" transform="translate(150,150)" d="M146.422,-32.565A150,150,0,0,0,128.671,-77.096L0,0Z" fill="#d62728"/><path aria-label="Count of Records: 209; Intake Sub-type: Too many animals" role="graphics-symbol" aria-roledescription="arc mark" transform="translate(150,150)" d="M-137.946,-58.915A150,150,0,0,0,8.749,149.745L0,0Z" fill="#7f7f7f"/><path aria-label="Count of Records: 56; Intake Sub-type: Cannot afford basic care (food - vaccines - etc)" role="graphics-symbol" aria-roledescription="arc mark" transform="translate(150,150)" d="M128.671,-77.096A150,150,0,0,0,70.106,-132.609L0,0Z" fill="#98df8a"/><path aria-label="Count of Records: 8; Intake Sub-type: Housesoiling" role="graphics-symbol" aria-roledescription="arc mark" transform="translate(150,150)" d="M149.913,5.105A150,150,0,0,0,149.856,-6.563L0,0Z" fill="#c5b0d5"/><path aria-label="Count of Records: 10; Intake Sub-type: Aggression" role="graphics-symbol" aria-roledescription="arc mark" transform="translate(150,150)" d="M40.347,-144.472A150,150,0,0,0,26.127,-147.707L0,0Z" fill="#ff7f0e"/><path aria-label="Count of Records: 19; Intake Sub-type: Allergies in family" role="graphics-symbol" aria-roledescription="arc mark" transform="translate(150,150)" d="M66.207,-134.598A150,150,0,0,0,40.347,-144.472L0,0Z" fill="#ffbb78"/><path aria-label="Count of Records: 16; Intake Sub-type: Abandoned" role="graphics-symbol" aria-roledescription="arc mark" transform="translate(150,150)" d="M23.249,-148.187A150,150,0,0,0,0,-150L0,0Z" fill="#1f77b4"/><path aria-label="Count of Records: 36; Intake Sub-type: Owner medical" role="graphics-symbol" aria-roledescription="arc mark" transform="translate(150,150)" d="M8.749,149.745A150,150,0,0,0,59.586,137.657L0,0Z" fill="#f7b6d2"/><path aria-label="Count of Records: 20; Intake Sub-type: Unrealistic expectations" role="graphics-symbol" aria-roledescription="arc mark" transform="translate(150,150)" d="M-123.955,-84.469A150,150,0,0,0,-137.946,-58.915L0,0Z" fill="#c7c7c7"/><path aria-label="Count of Records: 16; Intake Sub-type: Death of owner" role="graphics-symbol" aria-roledescription="arc mark" transform="translate(150,150)" d="M149.7,-9.477A150,150,0,0,0,146.422,-32.565L0,0Z" fill="#ff9896"/><path aria-label="Count of Records: 12; Intake Sub-type: Not good with kids at home" role="graphics-symbol" aria-roledescription="arc mark" transform="translate(150,150)" d="M81.431,125.972A150,150,0,0,0,95.546,115.633L0,0Z" fill="#c49c94"/><path aria-label="Count of Records: 2; Intake Sub-type: Abandoned at shelter" role="graphics-symbol" aria-roledescription="arc mark" transform="translate(150,150)" d="M26.127,-147.707A150,150,0,0,0,23.249,-148.187L0,0Z" fill="#aec7e8"/><path aria-label="Count of Records: 3; Intake Sub-type: Behavior/temperament of resident pet" role="graphics-symbol" aria-roledescription="arc mark" transform="translate(150,150)" d="M70.106,-132.609A150,150,0,0,0,66.207,-134.598L0,0Z" fill="#2ca02c"/><path aria-label="Count of Records: 2; Intake Sub-type: Destructive tendencies - claws furniture etc" role="graphics-symbol" aria-roledescription="arc mark" transform="translate(150,150)" d="M149.856,-6.563A150,150,0,0,0,149.7,-9.477L0,0Z" fill="#9467bd"/></g><g class="mark-group role-title"><g transform="translate(150,-20)"><path class="background" aria-hidden="true" d="M0,0h0v0h0Z" pointer-events="none"/><g><g class="mark-text role-title-text" role="graphics-symbol" aria-roledescription="title" aria-label="Title text 'Owner Surrender'" pointer-events="none"><text text-anchor="middle" transform="translate(0,8)" font-family="sans-serif" font-size="10px" fill="#000" opacity="1">Owner Surrender</text></g></g><path class="foreground" aria-hidden="true" d="" pointer-events="none" display="none"/></g></g></g><path class="foreground" aria-hidden="true" d="" display="none"/></g></g><g class="mark-group role-legend" role="graphics-symbol" aria-roledescription="legend" aria-label="Symbol legend titled 'Intake Sub-type' for fill color with 17 values: Abandoned, Abandoned at shelter, Aggression, Allergies in family, Behavior/temperament of resident pet, ending with Unwanted litter"><g transform="translate(680,0)"><path class="background" aria-hidden="true" d="M0,0h176v235h-176Z" pointer-events="none"/><g><g class="mark-group role-legend-entry"><g transform="translate(0,16)"><path class="background" aria-hidden="true" d="M0,0h0v0h0Z" pointer-events="none"/><g><g class="mark-group role-scope" role="graphics-object" aria-roledescription="group mark container"><g transform="translate(0,0)"><path class="background" aria-hidden="true" d="M0,0h176v11h-176Z" pointer-events="none" opacity="1"/><g><g class="mark-symbol role-legend-symbol" pointer-events="none"><path transform="translate(6,6)" d="M5,0A5,5,0,1,1,-5,0A5,5,0,1,1,5,0" fill="#1f77b4" stroke-width="1.5" opacity="1"/></g><g class="mark-text role-legend-label" pointer-events="none"><text text-anchor="start" transform="translate(16,9)" font-family="sans-serif" font-size="10px" fill="#000" opacity="1">Abandoned</text></g></g><path class="foreground" aria-hidden="true" d="" pointer-events="none" display="none"/></g><g transform="translate(0,13)"><path class="background" aria-hidden="true" d="M0,0h176v11h-176Z" pointer-events="none" opacity="1"/><g><g class="mark-symbol role-legend-symbol" pointer-events="none"><path transform="translate(6,6)" d="M5,0A5,5,0,1,1,-5,0A5,5,0,1,1,5,0" fill="#aec7e8" stroke-width="1.5" opacity="1"/></g><g class="mark-text role-legend-label" pointer-events="none"><text text-anchor="start" transform="translate(16,9)" font-family="sans-serif" font-size="10px" fill="#000" opacity="1">Abandoned at shelter</text></g></g><path class="foreground" aria-hidden="true" d="" pointer-events="none" display="none"/></g><g transform="translate(0,26)"><path class="background" aria-hidden="true" d="M0,0h176v11h-176Z" pointer-events="none" opacity="1"/><g><g class="mark-symbol role-legend-symbol" pointer-events="none"><path transform="translate(6,6)" d="M5,0A5,5,0,1,1,-5,0A5,5,0,1,1,5,0" fill="#ff7f0e" stroke-width="1.5" opacity="1"/></g><g class="mark-text role-legend-label" pointer-events="none"><text text-anchor="start" transform="translate(16,9)" font-family="sans-serif" font-size="10px" fill="#000" opacity="1">Aggression</text></g></g><path class="foreground" aria-hidden="true" d="" pointer-events="none" display="none"/></g><g transform="translate(0,39)"><path class="background" aria-hidden="true" d="M0,0h176v11h-176Z" pointer-events="none" opacity="1"/><g><g class="mark-symbol role-legend-symbol" pointer-events="none"><path transform="translate(6,6)" d="M5,0A5,5,0,1,1,-5,0A5,5,0,1,1,5,0" fill="#ffbb78" stroke-width="1.5" opacity="1"/></g><g class="mark-text role-legend-label" pointer-events="none"><text text-anchor="start" transform="translate(16,9)" font-family="sans-serif" font-size="10px" fill="#000" opacity="1">Allergies in family</text></g></g><path class="foreground" aria-hidden="true" d="" pointer-events="none" display="none"/></g><g transform="translate(0,52)"><path class="background" aria-hidden="true" d="M0,0h176v11h-176Z" pointer-events="none" opacity="1"/><g><g class="mark-symbol role-legend-symbol" pointer-events="none"><path transform="translate(6,6)" d="M5,0A5,5,0,1,1,-5,0A5,5,0,1,1,5,0" fill="#2ca02c" stroke-width="1.5" opacity="1"/></g><g class="mark-text role-legend-label" pointer-events="none"><text text-anchor="start" transform="translate(16,9)" font-family="sans-serif" font-size="10px" fill="#000" opacity="1">Behavior/temperament of residen…</text></g></g><path class="foreground" aria-hidden="true" d="" pointer-events="none" display="none"/></g><g transform="translate(0,65)"><path class="background" aria-hidden="true" d="M0,0h176v11h-176Z" pointer-events="none" opacity="1"/><g><g class="mark-symbol role-legend-symbol" pointer-events="none"><path transform="translate(6,6)" d="M5,0A5,5,0,1,1,-5,0A5,5,0,1,1,5,0" fill="#98df8a" stroke-width="1.5" opacity="1"/></g><g class="mark-text role-legend-label" pointer-events="none"><text text-anchor="start" transform="translate(16,9)" font-family="sans-serif" font-size="10px" fill="#000" opacity="1">Cannot afford basic care (food - v…</text></g></g><path class="foreground" aria-hidden="true" d="" pointer-events="none" display="none"/></g><g transform="translate(0,78)"><path class="background" aria-hidden="true" d="M0,0h176v11h-176Z" pointer-events="none" opacity="1"/><g><g class="mark-symbol role-legend-symbol" pointer-events="none"><path transform="translate(6,6)" d="M5,0A5,5,0,1,1,-5,0A5,5,0,1,1,5,0" fill="#d62728" stroke-width="1.5" opacity="1"/></g><g class="mark-text role-legend-label" pointer-events="none"><text text-anchor="start" transform="translate(16,9)" font-family="sans-serif" font-size="10px" fill="#000" opacity="1">Cannot afford/handle medical iss…</text></g></g><path class="foreground" aria-hidden="true" d="" pointer-events="none" display="none"/></g><g transform="translate(0,91)"><path class="background" aria-hidden="true" d="M0,0h176v11h-176Z" pointer-events="none" opacity="1"/><g><g class="mark-symbol role-legend-symbol" pointer-events="none"><path transform="translate(6,6)" d="M5,0A5,5,0,1,1,-5,0A5,5,0,1,1,5,0" fill="#ff9896" stroke-width="1.5" opacity="1"/></g><g class="mark-text role-legend-label" pointer-events="none"><text text-anchor="start" transform="translate(16,9)" font-family="sans-serif" font-size="10px" fill="#000" opacity="1">Death of owner</text></g></g><path class="foreground" aria-hidden="true" d="" pointer-events="none" display="none"/></g><g transform="translate(0,104)"><path class="background" aria-hidden="true" d="M0,0h176v11h-176Z" pointer-events="none" opacity="1"/><g><g class="mark-symbol role-legend-symbol" pointer-events="none"><path transform="translate(6,6)" d="M5,0A5,5,0,1,1,-5,0A5,5,0,1,1,5,0" fill="#9467bd" stroke-width="1.5" opacity="1"/></g><g class="mark-text role-legend-label" pointer-events="none"><text text-anchor="start" transform="translate(16,9)" font-family="sans-serif" font-size="10px" fill="#000" opacity="1">Destructive tendencies - claws fur…</text></g></g><path class="foreground" aria-hidden="true" d="" pointer-events="none" display="none"/></g><g transform="translate(0,117)"><path class="background" aria-hidden="true" d="M0,0h176v11h-176Z" pointer-events="none" opacity="1"/><g><g class="mark-symbol role-legend-symbol" pointer-events="none"><path transform="translate(6,6)" d="M5,0A5,5,0,1,1,-5,0A5,5,0,1,1,5,0" fill="#c5b0d5" stroke-width="1.5" opacity="1"/></g><g class="mark-text role-legend-label" pointer-events="none"><text text-anchor="start" transform="translate(16,9)" font-family="sans-serif" font-size="10px" fill="#000" opacity="1">Housesoiling</text></g></g><path class="foreground" aria-hidden="true" d="" pointer-events="none" display="none"/></g><g transform="translate(0,130)"><path class="background" aria-hidden="true" d="M0,0h176v11h-176Z" pointer-events="none" opacity="1"/><g><g class="mark-symbol role-legend-symbol" pointer-events="none"><path transform="translate(6,6)" d="M5,0A5,5,0,1,1,-5,0A5,5,0,1,1,5,0" fill="#8c564b" stroke-width="1.5" opacity="1"/></g><g class="mark-text role-legend-label" pointer-events="none"><text text-anchor="start" transform="translate(16,9)" font-family="sans-serif" font-size="10px" fill="#000" opacity="1">Moving/Landlord</text></g></g><path class="foreground" aria-hidden="true" d="" pointer-events="none" display="none"/></g><g transform="translate(0,143)"><path class="background" aria-hidden="true" d="M0,0h176v11h-176Z" pointer-events="none" opacity="1"/><g><g class="mark-symbol role-legend-symbol" pointer-events="none"><path transform="translate(6,6)" d="M5,0A5,5,0,1,1,-5,0A5,5,0,1,1,5,0" fill="#c49c94" stroke-width="1.5" opacity="1"/></g><g class="mark-text role-legend-label" pointer-events="none"><text text-anchor="start" transform="translate(16,9)" font-family="sans-serif" font-size="10px" fill="#000" opacity="1">Not good with kids at home</text></g></g><path class="foreground" aria-hidden="true" d="" pointer-events="none" display="none"/></g><g transform="translate(0,156)"><path class="background" aria-hidden="true" d="M0,0h176v11h-176Z" pointer-events="none" opacity="1"/><g><g class="mark-symbol role-legend-symbol" pointer-events="none"><path transform="translate(6,6)" d="M5,0A5,5,0,1,1,-5,0A5,5,0,1,1,5,0" fill="#e377c2" stroke-width="1.5" opacity="1"/></g><g class="mark-text role-legend-label" pointer-events="none"><text text-anchor="start" transform="translate(16,9)" font-family="sans-serif" font-size="10px" fill="#000" opacity="1">Not good with other pets at home</text></g></g><path class="foreground" aria-hidden="true" d="" pointer-events="none" display="none"/></g><g transform="translate(0,169)"><path class="background" aria-hidden="true" d="M0,0h176v11h-176Z" pointer-events="none" opacity="1"/><g><g class="mark-symbol role-legend-symbol" pointer-events="none"><path transform="translate(6,6)" d="M5,0A5,5,0,1,1,-5,0A5,5,0,1,1,5,0" fill="#f7b6d2" stroke-width="1.5" opacity="1"/></g><g class="mark-text role-legend-label" pointer-events="none"><text text-anchor="start" transform="translate(16,9)" font-family="sans-serif" font-size="10px" fill="#000" opacity="1">Owner medical</text></g></g><path class="foreground" aria-hidden="true" d="" pointer-events="none" display="none"/></g><g transform="translate(0,182)"><path class="background" aria-hidden="true" d="M0,0h176v11h-176Z" pointer-events="none" opacity="1"/><g><g class="mark-symbol role-legend-symbol" pointer-events="none"><path transform="translate(6,6)" d="M5,0A5,5,0,1,1,-5,0A5,5,0,1,1,5,0" fill="#7f7f7f" stroke-width="1.5" opacity="1"/></g><g class="mark-text role-legend-label" pointer-events="none"><text text-anchor="start" transform="translate(16,9)" font-family="sans-serif" font-size="10px" fill="#000" opacity="1">Too many animals</text></g></g><path class="foreground" aria-hidden="true" d="" pointer-events="none" display="none"/></g><g transform="translate(0,195)"><path class="background" aria-hidden="true" d="M0,0h176v11h-176Z" pointer-events="none" opacity="1"/><g><g class="mark-symbol role-legend-symbol" pointer-events="none"><path transform="translate(6,6)" d="M5,0A5,5,0,1,1,-5,0A5,5,0,1,1,5,0" fill="#c7c7c7" stroke-width="1.5" opacity="1"/></g><g class="mark-text role-legend-label" pointer-events="none"><text text-anchor="start" transform="translate(16,9)" font-family="sans-serif" font-size="10px" fill="#000" opacity="1">Unrealistic expectations</text></g></g><path class="foreground" aria-hidden="true" d="" pointer-events="none" display="none"/></g><g transform="translate(0,208)"><path class="background" aria-hidden="true" d="M0,0h176v11h-176Z" pointer-events="none" opacity="1"/><g><g class="mark-symbol role-legend-symbol" pointer-events="none"><path transform="translate(6,6)" d="M5,0A5,5,0,1,1,-5,0A5,5,0,1,1,5,0" fill="#bcbd22" stroke-width="1.5" opacity="1"/></g><g class="mark-text role-legend-label" pointer-events="none"><text text-anchor="start" transform="translate(16,9)" font-family="sans-serif" font-size="10px" fill="#000" opacity="1">Unwanted litter</text></g></g><path class="foreground" aria-hidden="true" d="" pointer-events="none" display="none"/></g></g></g><path class="foreground" aria-hidden="true" d="" pointer-events="none" display="none"/></g></g><g class="mark-text role-legend-title" pointer-events="none"><text text-anchor="start" transform="translate(0,9)" font-family="sans-serif" font-size="11px" font-weight="bold" fill="#000" opacity="1">Intake Sub-type</text></g></g><path class="foreground" aria-hidden="true" d="" pointer-events="none" display="none"/></g></g></g><path class="foreground" aria-hidden="true" d="" display="none"/></g></g></g></svg>