<svg xmlns="http://www.w3.org/2000/svg" xmlns:xlink="http://www.w3.org/1999/xlink" version="1.1" class="marks" width="558" height="427" viewBox="0 0 558 427"><rect width="558" height="427" fill="white"/><g fill="none" stroke-miterlimit="10" transform="translate(17,22)"><g class="mark-group role-frame root" role="graphics-object" aria-roledescription="group mark container"><g transform="translate(0,0)"><path class="background" aria-hidden="true" d="M0,0h300v400h-300Z"/><g><g class="mark-arc role-mark layer_0_marks" role="graphics-object" aria-roledescription="arc mark container"><path aria-label="Count of Records: 6; Intake Sub-type: Unrealistic expectations" role="graphics-symbol" aria-roledescription="arc mark" transform="translate(150,200)" d="M0,-150A150,150,0,1,0,88.168,121.353L0,0Z" fill="#ffbb78"/><path aria-label="Count of Records: 2; Intake Sub-type: Aggression" role="graphics-symbol" aria-roledescription="arc mark" transform="translate(150,200)" d="M142.658,-46.353A150,150,0,0,0,0,-150L0,0Z" fill="#1f77b4"/><path aria-label="Count of Records: 1; Intake Sub-type: Cannot afford/handle medical issues" role="graphics-symbol" aria-roledescription="arc mark" transform="translate(150,200)" d="M142.658,46.353A150,150,0,0,0,142.658,-46.353L0,0Z" fill="#aec7e8"/><path aria-label="Count of Records: 1; Intake Sub-type: Moving/Landlord" role="graphics-symbol" aria-roledescription="arc mark" transform="translate(150,200)" d="M88.168,121.353A150,150,0,0,0,142.658,46.353L0,0Z" fill="#ff7f0e"/></g><g class="mark-text role-mark layer_1_marks" role="graphics-object" aria-roledescription="text mark container"><text aria-label="Count of Records: 6; Intake Sub-type: Unrealistic expectations" role="graphics-symbol" aria-roledescription="text mark" text-anchor="middle" transform="translate(-6.9243251887003225,255.98780407186632)" font-family="sans-serif" font-size="15px" fill="#ffbb78">6</text><text aria-label="Count of Records: 2; Intake Sub-type: Aggression" role="graphics-symbol" aria-roledescription="text mark" text-anchor="middle" transform="translate(246.98456662825805,71.51219592813368)" font-family="sans-serif" font-size="15px" fill="#1f77b4">2</text><text aria-label="Count of Records: 1; Intake Sub-type: Cannot afford/handle medical issues" role="graphics-symbol" aria-roledescription="text mark" text-anchor="middle" transform="translate(315,205)" font-family="sans-serif" font-size="15px" fill="#aec7e8">1</text><text aria-label="Count of Records: 1; Intake Sub-type: Moving/Landlord" role="graphics-symbol" aria-roledescription="text mark" text-anchor="middle" transform="translate(283.4878040718663,301.98456662825805)" font-family="sans-serif" font-size="15px" fill="#ff7f0e">1</text></g><g class="mark-group role-legend" role="graphics-symbol" aria-roledescription="legend" aria-label="Symbol legend titled 'Intake Sub-type' for fill color with 4 values: Aggression, Cannot afford/handle medical issues, Moving/Landlord, Unrealistic expectations"><g transform="translate(360,0)"><path class="background" aria-hidden="true" d="M0,0h176v66h-176Z" pointer-events="none"/><g><g class="mark-group role-legend-entry"><g transform="translate(0,16)"><path class="background" aria-hidden="true" d="M0,0h0v0h0Z" pointer-events="none"/><g><g class="mark-group role-scope" role="graphics-object" aria-roledescription="group mark container"><g transform="translate(0,0)"><path class="background" aria-hidden="true" d="M0,0h176v11h-176Z" pointer-events="none" opacity="1"/><g><g class="mark-symbol role-legend-symbol" pointer-events="none"><path transform="translate(6,6)" d="M5,0A5,5,0,1,1,-5,0A5,5,0,1,1,5,0" fill="#1f77b4" stroke-width="1.5" opacity="1"/></g><g class="mark-text role-legend-label" pointer-events="none"><text text-anchor="start" transform="translate(16,9)" font-family="sans-serif" font-size="10px" fill="#000" opacity="1">Aggression</text></g></g><path class="foreground" aria-hidden="true" d="" pointer-events="none" display="none"/></g><g transform="translate(0,13)"><path class="background" aria-hidden="true" d="M0,0h176v11h-176Z" pointer-events="none" opacity="1"/><g><g class="mark-symbol role-legend-symbol" pointer-events="none"><path transform="translate(6,6)" d="M5,0A5,5,0,1,1,-5,0A5,5,0,1,1,5,0" fill="#aec7e8" stroke-width="1.5" opacity="1"/></g><g class="mark-text role-legend-label" pointer-events="none"><text text-anchor="start" transform="translate(16,9)" font-family="sans-serif" font-size="10px" fill="#000" opacity="1">Cannot afford/handle medical iss…</text></g></g><path class="foreground" aria-hidden="true" d="" pointer-events="none" display="none"/></g><g transform="translate(0,26)"><path class="background" aria-hidden="true" d="M0,0h176v11h-176Z" pointer-events="none" opacity="1"/><g><g class="mark-symbol role-legend-symbol" pointer-events="none"><path transform="translate(6,6)" d="M5,0A5,5,0,1,1,-5,0A5,5,0,1,1,5,0" fill="#ff7f0e" stroke-width="1.5" opacity="1"/></g><g class="mark-text role-legend-label" pointer-events="none"><text text-anchor="start" transform="translate(16,9)" font-family="sans-serif" font-size="10px" fill="#000" opacity="1">Moving/Landlord</text></g></g><path class="foreground" aria-hidden="true" d="" pointer-events="none" display="none"/></g><g transform="translate(0,39)"><path class="background" aria-hidden="true" d="M0,0h176v11h-176Z" pointer-events="none" opacity="1"/><g><g class="mark-symbol role-legend-symbol" pointer-events="none"><path transform="translate(6,6)" d="M5,0A5,5,0,1,1,-5,0A5,5,0,1,1,5,0" fill="#ffbb78" stroke-width="1.5" opacity="1"/></g><g class="mark-text role-legend-label" pointer-events="none"><text text-anchor="start" transform="translate(16,9)" font-family="sans-serif" font-size="10px" fill="#000" opacity="1">Unrealistic expectations</text></g></g><path class="foreground" aria-hidden="true" d="" pointer-events="none" display="none"/></g></g></g><path class="foreground" aria-hidden="true" d="" pointer-events="none" display="none"/></g></g><g class="mark-text role-legend-title" pointer-events="none"><text text-anchor="start" transform="translate(0,9)" font-family="sans-serif" font-size="11px" font-weight="bold" fill="#000" opacity="1">Intake Sub-type</text></g></g><path class="foreground" aria-hidden="true" d="" pointer-events="none" display="none"/></g></g><g class="mark-group role-title"><g transform="translate(150,-17)"><path class="background" aria-hidden="true" d="M0,0h0v0h0Z" pointer-events="none"/><g><g class="mark-text role-title-text" role="graphics-symbol" aria-roledescription="title" aria-label="Title text 'Cats by Intake Sub-type'" pointer-events="none"><text text-anchor="middle" transform="translate(0,10)" font-family="sans-serif" font-size="13px" font-weight="bold" fill="#000" opacity="1">Cats by Intake Sub-type</text></g></g><path class="foreground" aria-hidden="true" d="" pointer-events="none" display="none"/></g></g></g><path class="foreground" aria-hidden="true" d="" display="none"/></g></g></g></svg>