<svg xmlns="http://www.w3.org/2000/svg" xmlns:xlink="http://www.w3.org/1999/xlink" version="1.1" class="marks" width="460" height="427" viewBox="0 0 460 427"><rect width="460" height="427" fill="white"/><g fill="none" stroke-miterlimit="10" transform="translate(5,22)"><g class="mark-group role-frame root" role="graphics-object" aria-roledescription="group mark container"><g transform="translate(0,0)"><path class="background" aria-hidden="true" d="M0,0h300v400h-300Z"/><g><g class="mark-arc role-mark layer_0_marks" role="graphics-object" aria-roledescription="arc mark container"><path aria-label="Count of Records: 102; Outcome Type: Adoption" role="graphics-symbol" aria-roledescription="arc mark" transform="translate(150,200)" d="M-26.784,-147.589A150,150,0,1,0,0,-150L0,0Z" fill="#1f77b4"/><path aria-label="Count of Records: 2; Outcome Type: Euthanasia" role="graphics-symbol" aria-roledescription="arc mark" transform="translate(150,200)" d="M-8.971,-149.732A150,150,0,0,0,-26.784,-147.589L0,0Z" fill="#aec7e8"/><path aria-label="Count of Records: 1; Outcome Type: Return to Owner" role="graphics-symbol" aria-roledescription="arc mark" transform="translate(150,200)" d="M0,-150A150,150,0,0,0,-8.971,-149.732L0,0Z" fill="#ff7f0e"/></g><g class="mark-text role-mark layer_1_marks" role="graphics-object" aria-roledescription="text mark container"><text aria-label="Count of Records: 102; Outcome Type: Adoption" role="graphics-symbol" aria-roledescription="text mark" text-anchor="middle" transform="translate(164.79048596906654,369.33575850921443)" font-family="sans-serif" font-size="15px" fill="#1f77b4">102</text><text aria-label="Count of Records: 2; Outcome Type: Euthanasia" role="graphics-symbol" aria-roledescription="text mark" text-anchor="middle" transform="translate(130.29995295085962,41.18025715359684)" font-family="sans-serif" font-size="15px" fill="#aec7e8">2</text><text aria-label="Count of Records: 1; Outcome Type: Return to Owner" role="graphics-symbol" aria-roledescription="text mark" text-anchor="middle" transform="translate(145.06394808204917,40.07384867322196)" font-family="sans-serif" font-size="15px" fill="#ff7f0e">1</text></g><g class="mark-group role-legend" role="graphics-symbol" aria-roledescription="legend" aria-label="Symbol legend titled 'Outcome Type' for fill color with 3 values: Adoption, Euthanasia, Return to Owner"><g transform="translate(360,0)"><path class="background" aria-hidden="true" d="M0,0h90v53h-90Z" pointer-events="none"/><g><g class="mark-group role-legend-entry"><g transform="translate(0,16)"><path class="background" aria-hidden="true" d="M0,0h0v0h0Z" pointer-events="none"/><g><g class="mark-group role-scope" role="graphics-object" aria-roledescription="group mark container"><g transform="translate(0,0)"><path class="background" aria-hidden="true" d="M0,0h89.3642578125v11h-89.3642578125Z" pointer-events="none" opacity="1"/><g><g class="mark-symbol role-legend-symbol" pointer-events="none"><path transform="translate(6,6)" d="M5,0A5,5,0,1,1,-5,0A5,5,0,1,1,5,0" fill="#1f77b4" stroke-width="1.5" opacity="1"/></g><g class="mark-text role-legend-label" pointer-events="none"><text text-anchor="start" transform="translate(16,9)" font-family="sans-serif" font-size="10px" fill="#000" opacity="1">Adoption</text></g></g><path class="foreground" aria-hidden="true" d="" pointer-events="none" display="none"/></g><g transform="translate(0,13)"><path class="background" aria-hidden="true" d="M0,0h89.3642578125v11h-89.3642578125Z" pointer-events="none" opacity="1"/><g><g class="mark-symbol role-legend-symbol" pointer-events="none"><path transform="translate(6,6)" d="M5,0A5,5,0,1,1,-5,0A5,5,0,1,1,5,0" fill="#aec7e8" stroke-width="1.5" opacity="1"/></g><g class="mark-text role-legend-label" pointer-events="none"><text text-anchor="start" transform="translate(16,9)" font-family="sans-serif" font-size="10px" fill="#000" opacity="1">Euthanasia</text></g></g><path class="foreground" aria-hidden="true" d="" pointer-events="none" display="none"/></g><g transform="translate(0,26)"><path class="background" aria-hidden="true" d="M0,0h89.3642578125v11h-89.3642578125Z" pointer-events="none" opacity="1"/><g><g class="mark-symbol role-legend-symbol" pointer-events="none"><path transform="translate(6,6)" d="M5,0A5,5,0,1,1,-5,0A5,5,0,1,1,5,0" fill="#ff7f0e" stroke-width="1.5" opacity="1"/></g><g class="mark-text role-legend-label" pointer-events="none"><text text-anchor="start" transform="translate(16,9)" font-family="sans-serif" font-size="10px" fill="#000" opacity="1">Return to Owner</text></g></g><path class="foreground" aria-hidden="true" d="" pointer-events="none" display="none"/></g></g></g><path class="foreground" aria-hidden="true" d="" pointer-events="none" display="none"/></g></g><g class="mark-text role-legend-title" pointer-events="none"><text text-anchor="start" transform="translate(0,9)" font-family="sans-serif" font-size="11px" font-weight="bold" fill="#000" opacity="1">Outcome Type</text></g></g><path class="foreground" aria-hidden="true" d="" pointer-events="none" display="none"/></g></g><g class="mark-group role-title"><g transform="translate(150,-17)"><path class="background" aria-hidden="true" d="M0,0h0v0h0Z" pointer-events="none"/><g><g class="mark-text role-title-text" role="graphics-symbol" aria-roledescription="title" aria-label="Title text 'Cats by Outcome Type'" pointer-events="none"><text text-anchor="middle" transform="translate(0,10)" font-family="sans-serif" font-size="13px" font-weight="bold" fill="#000" opacity="1">Cats by Outcome Type</text></g></g><path class="foreground" aria-hidden="true" d="" pointer-events="none" display="none"/></g></g></g><path class="foreground" aria-hidden="true" d="" display="none"/></g></g></g></svg>