<svg xmlns="http://www.w3.org/2000/svg" xmlns:xlink="http://www.w3.org/1999/xlink" version="1.1" class="marks" width="566" height="427" viewBox="0 0 566 427"><rect width="566" height="427" fill="white"/><g fill="none" stroke-miterlimit="10" transform="translate(25,22)"><g class="mark-group role-frame root" role="graphics-object" aria-roledescription="group mark container"><g transform="translate(0,0)"><path class="background" aria-hidden="true" d="M0,0h300v400h-300Z"/><g><g class="mark-arc role-mark layer_0_marks" role="graphics-object" aria-roledescription="arc mark container"><path aria-label="Count of Records: 63; Intake Sub-type: Unrealistic expectations" role="graphics-symbol" aria-roledescription="arc mark" transform="translate(150,200)" d="M0,-150A150,150,0,1,0,66.183,134.61L0,0Z" fill="#c5b0d5"/><path aria-label="Count of Records: 7; Intake Sub-type: Allergies in family" role="graphics-symbol" aria-roledescription="arc mark" transform="translate(150,200)" d="M94.952,-116.121A150,150,0,0,0,42.26,-143.924L0,0Z" fill="#aec7e8"/><path aria-label="Count of Records: 6; Intake Sub-type: Cannot afford/handle medical issues" role="graphics-symbol" aria-roledescription="arc mark" transform="translate(150,200)" d="M142.658,-46.353A150,150,0,0,0,118.785,-91.597L0,0Z" fill="#2ca02c"/><path aria-label="Count of Records: 1; Intake Sub-type: Cannot afford basic care (food - vaccines - etc)" role="graphics-symbol" aria-roledescription="arc mark" transform="translate(150,200)" d="M118.785,-91.597A150,150,0,0,0,113.362,-98.229L0,0Z" fill="#ffbb78"/><path aria-label="Count of Records: 4; Intake Sub-type: Not good with kids at home" role="graphics-symbol" aria-roledescription="arc mark" transform="translate(150,200)" d="M145.072,38.133A150,150,0,0,0,149.939,4.283L0,0Z" fill="#d62728"/><path aria-label="Count of Records: 5; Intake Sub-type: Aggression" role="graphics-symbol" aria-roledescription="arc mark" transform="translate(150,200)" d="M42.26,-143.924A150,150,0,0,0,0,-150L0,0Z" fill="#1f77b4"/><path aria-label="Count of Records: 10; Intake Sub-type: Not good with other pets at home" role="graphics-symbol" aria-roledescription="arc mark" transform="translate(150,200)" d="M101.426,110.511A150,150,0,0,0,145.072,38.133L0,0Z" fill="#ff9896"/><path aria-label="Count of Records: 5; Intake Sub-type: Owner medical" role="graphics-symbol" aria-roledescription="arc mark" transform="translate(150,200)" d="M66.183,134.61A150,150,0,0,0,101.426,110.511L0,0Z" fill="#9467bd"/><path aria-label="Count of Records: 3; Intake Sub-type: Behavior/temperament of resident pet" role="graphics-symbol" aria-roledescription="arc mark" transform="translate(150,200)" d="M113.362,-98.229A150,150,0,0,0,94.952,-116.121L0,0Z" fill="#ff7f0e"/><path aria-label="Count of Records: 6; Intake Sub-type: Housesoiling" role="graphics-symbol" aria-roledescription="arc mark" transform="translate(150,200)" d="M149.939,4.283A150,150,0,0,0,142.658,-46.353L0,0Z" fill="#98df8a"/></g><g class="mark-text role-mark layer_1_marks" role="graphics-object" aria-roledescription="text mark container"><text aria-label="Count of Records: 63; Intake Sub-type: Unrealistic expectations" role="graphics-symbol" aria-roledescription="text mark" text-anchor="middle" transform="translate(-10.711966295485013,242.37196662525122)" font-family="sans-serif" font-size="15px" fill="#c5b0d5">63</text><text aria-label="Count of Records: 7; Intake Sub-type: Allergies in family" role="graphics-symbol" aria-roledescription="text mark" text-anchor="middle" transform="translate(227.00010833223618,59.06856638536064)" font-family="sans-serif" font-size="15px" fill="#aec7e8">7</text><text aria-label="Count of Records: 6; Intake Sub-type: Cannot afford/handle medical issues" role="graphics-symbol" aria-roledescription="text mark" text-anchor="middle" transform="translate(295.93143361463933,127.99989166776383)" font-family="sans-serif" font-size="15px" fill="#2ca02c">6</text><text aria-label="Count of Records: 1; Intake Sub-type: Cannot afford basic care (food - vaccines - etc)" role="graphics-symbol" aria-roledescription="text mark" text-anchor="middle" transform="translate(277.7333657554486,100.55294512153637)" font-family="sans-serif" font-size="15px" fill="#ffbb78">1</text><text aria-label="Count of Records: 4; Intake Sub-type: Not good with kids at home" role="graphics-symbol" aria-roledescription="text mark" text-anchor="middle" transform="translate(313.3205379103539,228.48194831509204)" font-family="sans-serif" font-size="15px" fill="#d62728">4</text><text aria-label="Count of Records: 5; Intake Sub-type: Aggression" role="graphics-symbol" aria-roledescription="text mark" text-anchor="middle" transform="translate(173.48194831509204,41.67946208964611)" font-family="sans-serif" font-size="15px" fill="#1f77b4">5</text><text aria-label="Count of Records: 10; Intake Sub-type: Not good with other pets at home" role="graphics-symbol" aria-roledescription="text mark" text-anchor="middle" transform="translate(291.29758999151215,290.2055811704287)" font-family="sans-serif" font-size="15px" fill="#ff9896">10</text><text aria-label="Count of Records: 5; Intake Sub-type: Owner medical" role="graphics-symbol" aria-roledescription="text mark" text-anchor="middle" transform="translate(243.1331311130169,341.2028629988577)" font-family="sans-serif" font-size="15px" fill="#9467bd">5</text><text aria-label="Count of Records: 3; Intake Sub-type: Behavior/temperament of resident pet" role="graphics-symbol" aria-roledescription="text mark" text-anchor="middle" transform="translate(264.99469882812343,86.67325221477104)" font-family="sans-serif" font-size="15px" fill="#ff7f0e">3</text><text aria-label="Count of Records: 6; Intake Sub-type: Housesoiling" role="graphics-symbol" aria-roledescription="text mark" text-anchor="middle" transform="translate(313.3205379103539,181.51805168490793)" font-family="sans-serif" font-size="15px" fill="#98df8a">6</text></g><g class="mark-group role-legend" role="graphics-symbol" aria-roledescription="legend" aria-label="Symbol legend titled 'Intake Sub-type' for fill color with 10 values: Aggression, Allergies in family, Behavior/temperament of resident pet, Cannot afford basic care (food - vaccines - etc), Cannot afford/handle medical issues, ending with Unrealistic expectations"><g transform="translate(360,0)"><path class="background" aria-hidden="true" d="M0,0h176v144h-176Z" pointer-events="none"/><g><g class="mark-group role-legend-entry"><g transform="translate(0,16)"><path class="background" aria-hidden="true" d="M0,0h0v0h0Z" pointer-events="none"/><g><g class="mark-group role-scope" role="graphics-object" aria-roledescription="group mark container"><g transform="translate(0,0)"><path class="background" aria-hidden="true" d="M0,0h176v11h-176Z" pointer-events="none" opacity="1"/><g><g class="mark-symbol role-legend-symbol" pointer-events="none"><path transform="translate(6,6)" d="M5,0A5,5,0,1,1,-5,0A5,5,0,1,1,5,0" fill="#1f77b4" stroke-width="1.5" opacity="1"/></g><g class="mark-text role-legend-label" pointer-events="none"><text text-anchor="start" transform="translate(16,9)" font-family="sans-serif" font-size="10px" fill="#000" opacity="1">Aggression</text></g></g><path class="foreground" aria-hidden="true" d="" pointer-events="none" display="none"/></g><g transform="translate(0,13)"><path class="background" aria-hidden="true" d="M0,0h176v11h-176Z" pointer-events="none" opacity="1"/><g><g class="mark-symbol role-legend-symbol" pointer-events="none"><path transform="translate(6,6)" d="M5,0A5,5,0,1,1,-5,0A5,5,0,1,1,5,0" fill="#aec7e8" stroke-width="1.5" opacity="1"/></g><g class="mark-text role-legend-label" pointer-events="none"><text text-anchor="start" transform="translate(16,9)" font-family="sans-serif" font-size="10px" fill="#000" opacity="1">Allergies in family</text></g></g><path class="foreground" aria-hidden="true" d="" pointer-events="none" display="none"/></g><g transform="translate(0,26)"><path class="background" aria-hidden="true" d="M0,0h176v11h-176Z" pointer-events="none" opacity="1"/><g><g class="mark-symbol role-legend-symbol" pointer-events="none"><path transform="translate(6,6)" d="M5,0A5,5,0,1,1,-5,0A5,5,0,1,1,5,0" fill="#ff7f0e" stroke-width="1.5" opacity="1"/></g><g class="mark-text role-legend-label" pointer-events="none"><text text-anchor="start" transform="translate(16,9)" font-family="sans-serif" font-size="10px" fill="#000" opacity="1">Behavior/temperament of residen…</text></g></g><path class="foreground" aria-hidden="true" d="" pointer-events="none" display="none"/></g><g transform="translate(0,39)"><path class="background" aria-hidden="true" d="M0,0h176v11h-176Z" pointer-events="none" opacity="1"/><g><g class="mark-symbol role-legend-symbol" pointer-events="none"><path transform="translate(6,6)" d="M5,0A5,5,0,1,1,-5,0A5,5,0,1,1,5,0" fill="#ffbb78" stroke-width="1.5" opacity="1"/></g><g class="mark-text role-legend-label" pointer-events="none"><text text-anchor="start" transform="translate(16,9)" font-family="sans-serif" font-size="10px" fill="#000" opacity="1">Cannot afford basic care (food - v…</text></g></g><path class="foreground" aria-hidden="true" d="" pointer-events="none" display="none"/></g><g transform="translate(0,52)"><path class="background" aria-hidden="true" d="M0,0h176v11h-176Z" pointer-events="none" opacity="1"/><g><g class="mark-symbol role-legend-symbol" pointer-events="none"><path transform="translate(6,6)" d="M5,0A5,5,0,1,1,-5,0A5,5,0,1,1,5,0" fill="#2ca02c" stroke-width="1.5" opacity="1"/></g><g class="mark-text role-legend-label" pointer-events="none"><text text-anchor="start" transform="translate(16,9)" font-family="sans-serif" font-size="10px" fill="#000" opacity="1">Cannot afford/handle medical iss…</text></g></g><path class="foreground" aria-hidden="true" d="" pointer-events="none" display="none"/></g><g transform="translate(0,65)"><path class="background" aria-hidden="true" d="M0,0h176v11h-176Z" pointer-events="none" opacity="1"/><g><g class="mark-symbol role-legend-symbol" pointer-events="none"><path transform="translate(6,6)" d="M5,0A5,5,0,1,1,-5,0A5,5,0,1,1,5,0" fill="#98df8a" stroke-width="1.5" opacity="1"/></g><g class="mark-text role-legend-label" pointer-events="none"><text text-anchor="start" transform="translate(16,9)" font-family="sans-serif" font-size="10px" fill="#000" opacity="1">Housesoiling</text></g></g><path class="foreground" aria-hidden="true" d="" pointer-events="none" display="none"/></g><g transform="translate(0,78)"><path class="background" aria-hidden="true" d="M0,0h176v11h-176Z" pointer-events="none" opacity="1"/><g><g class="mark-symbol role-legend-symbol" pointer-events="none"><path transform="translate(6,6)" d="M5,0A5,5,0,1,1,-5,0A5,5,0,1,1,5,0" fill="#d62728" stroke-width="1.5" opacity="1"/></g><g class="mark-text role-legend-label" pointer-events="none"><text text-anchor="start" transform="translate(16,9)" font-family="sans-serif" font-size="10px" fill="#000" opacity="1">Not good with kids at home</text></g></g><path class="foreground" aria-hidden="true" d="" pointer-events="none" display="none"/></g><g transform="translate(0,91)"><path class="background" aria-hidden="true" d="M0,0h176v11h-176Z" pointer-events="none" opacity="1"/><g><g class="mark-symbol role-legend-symbol" pointer-events="none"><path transform="translate(6,6)" d="M5,0A5,5,0,1,1,-5,0A5,5,0,1,1,5,0" fill="#ff9896" stroke-width="1.5" opacity="1"/></g><g class="mark-text role-legend-label" pointer-events="none"><text text-anchor="start" transform="translate(16,9)" font-family="sans-serif" font-size="10px" fill="#000" opacity="1">Not good with other pets at home</text></g></g><path class="foreground" aria-hidden="true" d="" pointer-events="none" display="none"/></g><g transform="translate(0,104)"><path class="background" aria-hidden="true" d="M0,0h176v11h-176Z" pointer-events="none" opacity="1"/><g><g class="mark-symbol role-legend-symbol" pointer-events="none"><path transform="translate(6,6)" d="M5,0A5,5,0,1,1,-5,0A5,5,0,1,1,5,0" fill="#9467bd" stroke-width="1.5" opacity="1"/></g><g class="mark-text role-legend-label" pointer-events="none"><text text-anchor="start" transform="translate(16,9)" font-family="sans-serif" font-size="10px" fill="#000" opacity="1">Owner medical</text></g></g><path class="foreground" aria-hidden="true" d="" pointer-events="none" display="none"/></g><g transform="translate(0,117)"><path class="background" aria-hidden="true" d="M0,0h176v11h-176Z" pointer-events="none" opacity="1"/><g><g class="mark-symbol role-legend-symbol" pointer-events="none"><path transform="translate(6,6)" d="M5,0A5,5,0,1,1,-5,0A5,5,0,1,1,5,0" fill="#c5b0d5" stroke-width="1.5" opacity="1"/></g><g class="mark-text role-legend-label" pointer-events="none"><text text-anchor="start" transform="translate(16,9)" font-family="sans-serif" font-size="10px" fill="#000" opacity="1">Unrealistic expectations</text></g></g><path class="foreground" aria-hidden="true" d="" pointer-events="none" display="none"/></g></g></g><path class="foreground" aria-hidden="true" d="" pointer-events="none" display="none"/></g></g><g class="mark-text role-legend-title" pointer-events="none"><text text-anchor="start" transform="translate(0,9)" font-family="sans-serif" font-size="11px" font-weight="bold" fill="#000" opacity="1">Intake Sub-type</text></g></g><path class="foreground" aria-hidden="true" d="" pointer-events="none" display="none"/></g></g><g class="mark-group role-title"><g transform="translate(150,-17)"><path class="background" aria-hidden="true" d="M0,0h0v0h0Z" pointer-events="none"/><g><g class="mark-text role-title-text" role="graphics-symbol" aria-roledescription="title" aria-label="Title text 'Cats by Intake Sub-type'" pointer-events="none"><text text-anchor="middle" transform="translate(0,10)" font-family="sans-serif" font-size="13px" font-weight="bold" fill="#000" opacity="1">Cats by Intake Sub-type</text></g></g><path class="foreground" aria-hidden="true" d="" pointer-events="none" display="none"/></g></g></g><path class="foreground" aria-hidden="true" d="" display="none"/></g></g></g></svg>